<svg width="191" height="92" viewBox="0 0 191 92" fill="none" xmlns="http://www.w3.org/2000/svg">
<rect width="48.5651" height="45.8961" transform="translate(68 30)" fill="white"/>
<path d="M92.175 60.65C88.2211 60.65 84.7944 57.8 84.7944 54C84.7944 50.4375 87.9575 47.35 92.175 47.35C96.1289 47.35 99.5556 50.2 99.5556 54C99.5556 57.5625 96.1289 60.65 92.175 60.65Z" fill="#594D4A"/>
<path fill-rule="evenodd" clip-rule="evenodd" d="M101.137 37.85H83.2128C81.1041 38.0875 80.0497 38.325 79.2589 38.5625C78.2045 38.8 77.4137 39.275 76.623 39.9875C75.9972 40.5513 75.7016 41.1151 75.3442 41.7965C75.2501 41.9761 75.1513 42.1644 75.0414 42.3625C75.0006 42.4727 74.9535 42.5886 74.9031 42.7128C74.6273 43.3917 74.2506 44.3189 74.2506 45.925V62.075C74.5142 63.975 74.7778 64.925 75.0414 65.6375C75.305 66.5875 75.8322 67.3 76.623 68.0125C77.2487 68.5763 77.8744 68.8427 78.6308 69.1646C78.8303 69.2496 79.0388 69.3383 79.2589 69.4375C79.3812 69.4742 79.5099 69.5166 79.6477 69.5621C80.4011 69.8106 81.4303 70.15 83.2128 70.15H101.137C103.246 69.9125 104.3 69.675 105.091 69.4375C106.145 69.2 106.936 68.725 107.727 68.0125C108.353 67.4487 108.648 66.8849 109.006 66.2034C109.1 66.0237 109.199 65.8357 109.309 65.6375C109.349 65.5273 109.396 65.4114 109.447 65.2871C109.723 64.6083 110.099 63.6811 110.099 62.075V45.925C109.836 44.025 109.572 43.075 109.309 42.3625C109.045 41.4125 108.518 40.7 107.727 39.9875C107.101 39.4237 106.476 39.1573 105.719 38.8353C105.52 38.7505 105.311 38.6615 105.091 38.5625C104.969 38.5257 104.84 38.4833 104.702 38.4379C103.949 38.1894 102.92 37.85 101.137 37.85ZM92.175 43.7875C85.8487 43.7875 80.8405 48.3 80.8405 54C80.8405 59.7 85.8487 64.2125 92.175 64.2125C98.5012 64.2125 103.51 59.7 103.51 54C103.51 48.3 98.5012 43.7875 92.175 43.7875ZM106.409 43.55C106.409 44.8617 105.229 45.925 103.773 45.925C102.317 45.925 101.137 44.8617 101.137 43.55C101.137 42.2383 102.317 41.175 103.773 41.175C105.229 41.175 106.409 42.2383 106.409 43.55Z" fill="#594D4A"/>
<path fill-rule="evenodd" clip-rule="evenodd" d="M50 27.875C50 21.3166 55.9007 16 63.1797 16H121.17C128.449 16 134.35 21.3166 134.35 27.875V80.125C134.35 86.6834 128.449 92 121.17 92H63.1797C55.9007 92 50 86.6834 50 80.125V27.875ZM83.2128 34.2875H101.137C103.51 34.525 105.091 34.7625 106.409 35.2375C107.991 35.95 109.045 36.425 110.363 37.6125C111.681 38.8 112.472 39.9875 112.999 41.175C113.526 42.3625 114.053 43.7875 114.053 45.925V62.075C113.79 64.2125 113.526 65.6375 112.999 66.825C112.208 68.25 111.681 69.2 110.363 70.3875C109.045 71.575 107.727 72.2875 106.409 72.7625C105.091 73.2375 103.51 73.7125 101.137 73.7125H83.2128C80.8405 73.475 79.2589 73.2375 77.9409 72.7625C76.3594 72.05 75.305 71.575 73.987 70.3875C72.6691 69.2 71.8783 68.0125 71.3511 66.825C70.8239 65.6375 70.2967 64.2125 70.2967 62.075V45.925C70.5603 43.7875 70.8239 42.3625 71.3511 41.175C72.1419 39.75 72.6691 38.8 73.987 37.6125C75.305 36.425 76.623 35.7125 77.9409 35.2375C79.2589 34.7625 80.8405 34.2875 83.2128 34.2875Z" fill="#594D4A"/>
<path d="M190.792 39.9355C189.241 40.7039 187.575 41.223 185.823 41.4577C187.63 40.2486 188.982 38.3458 189.627 36.1041C187.929 37.2317 186.071 38.0254 184.133 38.4507C182.83 36.895 181.103 35.8639 179.222 35.5174C177.341 35.1709 175.41 35.5284 173.73 36.5345C172.049 37.5405 170.712 39.1388 169.927 41.0812C169.142 43.0236 168.953 45.2013 169.388 47.2764C165.948 47.0833 162.582 46.0835 159.51 44.3419C156.437 42.6004 153.726 40.156 151.553 37.1673C150.81 38.6002 150.383 40.2615 150.383 42.0308C150.382 43.6236 150.733 45.192 151.404 46.5968C152.076 48.0016 153.047 49.1994 154.232 50.084C152.858 50.0351 151.514 49.6201 150.313 48.8733V48.9979C150.312 51.2319 151.004 53.397 152.269 55.1261C153.534 56.8551 155.295 58.0415 157.254 58.484C155.979 58.8697 154.643 58.9265 153.346 58.6501C153.898 60.5723 154.975 62.2531 156.424 63.4574C157.874 64.6616 159.624 65.329 161.429 65.366C158.364 68.0561 154.579 69.5153 150.682 69.5088C149.992 69.5091 149.302 69.464 148.617 69.3739C152.572 72.2171 157.176 73.7261 161.879 73.7203C177.797 73.7203 186.499 58.9803 186.499 46.1966C186.499 45.7812 186.49 45.3617 186.473 44.9464C188.166 43.5779 189.627 41.8832 190.788 39.9417L190.792 39.9355V39.9355Z" fill="#F6F6F6"/>
<path d="M34.7041 35H1.44601C0.646184 35 0 35.6971 0 36.56V72.44C0 73.3029 0.646184 74 1.44601 74H34.7041C35.504 74 36.1501 73.3029 36.1501 72.44V36.56C36.1501 35.6971 35.504 35 34.7041 35ZM33.2581 70.88H24.9391V58.8973H29.6386L30.3435 53.0131H24.9391V49.2545C24.9391 47.5483 25.3774 46.388 27.6413 46.388H30.5288V41.123C30.0272 41.0499 28.3146 40.889 26.3173 40.889C22.151 40.889 19.2997 43.6336 19.2997 48.6695V53.0083H14.5911V58.8924H19.3042V70.88H2.89201V38.12H33.2581V70.88Z" fill="#F6F6F6"/>
<g filter="url(#filter0_d_0_1)">
<path d="M25.0245 14.27C24.1485 14.27 23.3505 14.126 22.6305 13.838C21.9105 13.55 21.2925 13.13 20.7765 12.578C20.2605 12.026 19.8585 11.348 19.5705 10.544C19.2945 9.728 19.1565 8.798 19.1565 7.754C19.1565 6.71 19.3125 5.786 19.6245 4.982C19.9485 4.166 20.3805 3.482 20.9205 2.93C21.4605 2.378 22.0905 1.958 22.8105 1.67C23.5305 1.382 24.2985 1.238 25.1145 1.238C25.6305 1.238 26.0925 1.274 26.5005 1.346C26.9205 1.418 27.2805 1.502 27.5805 1.598C27.8925 1.694 28.1445 1.79 28.3365 1.886C28.5285 1.982 28.6605 2.054 28.7325 2.102L28.2285 3.542C28.1205 3.47 27.9645 3.392 27.7605 3.308C27.5565 3.224 27.3225 3.14 27.0585 3.056C26.8065 2.972 26.5245 2.906 26.2125 2.858C25.9125 2.798 25.6065 2.768 25.2945 2.768C24.6345 2.768 24.0405 2.882 23.5125 3.11C22.9845 3.338 22.5345 3.668 22.1625 4.1C21.7905 4.532 21.5025 5.06 21.2985 5.684C21.1065 6.296 21.0105 6.986 21.0105 7.754C21.0105 8.498 21.0945 9.176 21.2625 9.788C21.4425 10.4 21.7065 10.928 22.0545 11.372C22.4025 11.804 22.8345 12.14 23.3505 12.38C23.8785 12.62 24.4905 12.74 25.1865 12.74C25.9905 12.74 26.6565 12.656 27.1845 12.488C27.7125 12.32 28.1085 12.17 28.3725 12.038L28.8225 13.478C28.7385 13.538 28.5885 13.616 28.3725 13.712C28.1565 13.796 27.8865 13.88 27.5625 13.964C27.2385 14.048 26.8605 14.12 26.4285 14.18C25.9965 14.24 25.5285 14.27 25.0245 14.27ZM38.713 9.32C38.713 10.064 38.605 10.736 38.389 11.336C38.173 11.936 37.867 12.452 37.471 12.884C37.087 13.316 36.625 13.652 36.085 13.892C35.545 14.12 34.957 14.234 34.321 14.234C33.685 14.234 33.097 14.12 32.557 13.892C32.017 13.652 31.549 13.316 31.153 12.884C30.769 12.452 30.469 11.936 30.253 11.336C30.037 10.736 29.929 10.064 29.929 9.32C29.929 8.588 30.037 7.922 30.253 7.322C30.469 6.71 30.769 6.188 31.153 5.756C31.549 5.324 32.017 4.994 32.557 4.766C33.097 4.526 33.685 4.406 34.321 4.406C34.957 4.406 35.545 4.526 36.085 4.766C36.625 4.994 37.087 5.324 37.471 5.756C37.867 6.188 38.173 6.71 38.389 7.322C38.605 7.922 38.713 8.588 38.713 9.32ZM36.967 9.32C36.967 8.264 36.727 7.43 36.247 6.818C35.779 6.194 35.137 5.882 34.321 5.882C33.505 5.882 32.857 6.194 32.377 6.818C31.909 7.43 31.675 8.264 31.675 9.32C31.675 10.376 31.909 11.216 32.377 11.84C32.857 12.452 33.505 12.758 34.321 12.758C35.137 12.758 35.779 12.452 36.247 11.84C36.727 11.216 36.967 10.376 36.967 9.32ZM41.0682 4.91C41.4522 4.814 41.9622 4.712 42.5982 4.604C43.2342 4.496 43.9662 4.442 44.7942 4.442C45.5382 4.442 46.1562 4.55 46.6482 4.766C47.1402 4.97 47.5302 5.264 47.8182 5.648C48.1182 6.02 48.3282 6.47 48.4482 6.998C48.5682 7.526 48.6282 8.108 48.6282 8.744V14H46.9542V9.104C46.9542 8.528 46.9122 8.036 46.8282 7.628C46.7562 7.22 46.6302 6.89 46.4502 6.638C46.2702 6.386 46.0302 6.206 45.7302 6.098C45.4302 5.978 45.0582 5.918 44.6142 5.918C44.4342 5.918 44.2482 5.924 44.0562 5.936C43.8642 5.948 43.6782 5.966 43.4982 5.99C43.3302 6.002 43.1742 6.02 43.0302 6.044C42.8982 6.068 42.8022 6.086 42.7422 6.098V14H41.0682V4.91ZM51.4041 4.91C51.7881 4.814 52.2981 4.712 52.9341 4.604C53.5701 4.496 54.3021 4.442 55.1301 4.442C55.8741 4.442 56.4921 4.55 56.9841 4.766C57.4761 4.97 57.8661 5.264 58.1541 5.648C58.4541 6.02 58.6641 6.47 58.7841 6.998C58.9041 7.526 58.9641 8.108 58.9641 8.744V14H57.2901V9.104C57.2901 8.528 57.2481 8.036 57.1641 7.628C57.0921 7.22 56.9661 6.89 56.7861 6.638C56.6061 6.386 56.3661 6.206 56.0661 6.098C55.7661 5.978 55.3941 5.918 54.9501 5.918C54.7701 5.918 54.5841 5.924 54.3921 5.936C54.2001 5.948 54.0141 5.966 53.8341 5.99C53.6661 6.002 53.5101 6.02 53.3661 6.044C53.2341 6.068 53.1381 6.086 53.0781 6.098V14H51.4041V4.91ZM61.218 9.338C61.218 8.51 61.338 7.79 61.578 7.178C61.818 6.554 62.136 6.038 62.532 5.63C62.928 5.222 63.384 4.916 63.9 4.712C64.416 4.508 64.944 4.406 65.484 4.406C66.744 4.406 67.71 4.802 68.382 5.594C69.054 6.374 69.39 7.568 69.39 9.176C69.39 9.248 69.39 9.344 69.39 9.464C69.39 9.572 69.384 9.674 69.372 9.77H62.964C63.036 10.742 63.318 11.48 63.81 11.984C64.302 12.488 65.07 12.74 66.114 12.74C66.702 12.74 67.194 12.692 67.59 12.596C67.998 12.488 68.304 12.386 68.508 12.29L68.742 13.694C68.538 13.802 68.178 13.916 67.662 14.036C67.158 14.156 66.582 14.216 65.934 14.216C65.118 14.216 64.41 14.096 63.81 13.856C63.222 13.604 62.736 13.262 62.352 12.83C61.968 12.398 61.68 11.888 61.488 11.3C61.308 10.7 61.218 10.046 61.218 9.338ZM67.644 8.42C67.656 7.664 67.464 7.046 67.068 6.566C66.684 6.074 66.15 5.828 65.466 5.828C65.082 5.828 64.74 5.906 64.44 6.062C64.152 6.206 63.906 6.398 63.702 6.638C63.498 6.878 63.336 7.154 63.216 7.466C63.108 7.778 63.036 8.096 63 8.42H67.644ZM75.8627 14.216C75.1067 14.216 74.4407 14.096 73.8647 13.856C73.3007 13.616 72.8207 13.28 72.4247 12.848C72.0407 12.416 71.7527 11.906 71.5607 11.318C71.3687 10.718 71.2727 10.058 71.2727 9.338C71.2727 8.618 71.3747 7.958 71.5787 7.358C71.7947 6.758 72.0947 6.242 72.4787 5.81C72.8627 5.366 73.3307 5.024 73.8827 4.784C74.4467 4.532 75.0707 4.406 75.7547 4.406C76.1747 4.406 76.5947 4.442 77.0147 4.514C77.4347 4.586 77.8367 4.7 78.2207 4.856L77.8427 6.278C77.5907 6.158 77.2967 6.062 76.9607 5.99C76.6367 5.918 76.2887 5.882 75.9167 5.882C74.9807 5.882 74.2607 6.176 73.7567 6.764C73.2647 7.352 73.0187 8.21 73.0187 9.338C73.0187 9.842 73.0727 10.304 73.1807 10.724C73.3007 11.144 73.4807 11.504 73.7207 11.804C73.9727 12.104 74.2907 12.338 74.6747 12.506C75.0587 12.662 75.5267 12.74 76.0787 12.74C76.5227 12.74 76.9247 12.698 77.2847 12.614C77.6447 12.53 77.9267 12.44 78.1307 12.344L78.3647 13.748C78.2687 13.808 78.1307 13.868 77.9507 13.928C77.7707 13.976 77.5667 14.018 77.3387 14.054C77.1107 14.102 76.8647 14.138 76.6007 14.162C76.3487 14.198 76.1027 14.216 75.8627 14.216ZM81.7279 4.64H85.2739V6.044H81.7279V10.364C81.7279 10.832 81.7639 11.222 81.8359 11.534C81.9079 11.834 82.0159 12.074 82.1599 12.254C82.3039 12.422 82.4839 12.542 82.6999 12.614C82.9159 12.686 83.1679 12.722 83.4559 12.722C83.9599 12.722 84.3619 12.668 84.6619 12.56C84.9739 12.44 85.1899 12.356 85.3099 12.308L85.6339 13.694C85.4659 13.778 85.1719 13.88 84.7519 14C84.3319 14.132 83.8519 14.198 83.3119 14.198C82.6759 14.198 82.1479 14.12 81.7279 13.964C81.3199 13.796 80.9899 13.55 80.7379 13.226C80.4859 12.902 80.3059 12.506 80.1979 12.038C80.1019 11.558 80.0539 11.006 80.0539 10.382V2.03L81.7279 1.742V4.64ZM99.2201 14C98.8841 13.136 98.5241 12.152 98.1401 11.048C97.7681 9.932 97.4261 8.774 97.1141 7.574C96.8021 8.774 96.4601 9.932 96.0881 11.048C95.7161 12.152 95.3621 13.136 95.0261 14H93.5681C93.0161 12.764 92.4761 11.354 91.9481 9.77C91.4201 8.186 90.9221 6.476 90.4541 4.64H92.2541C92.3741 5.204 92.5181 5.816 92.6861 6.476C92.8541 7.136 93.0281 7.796 93.2081 8.456C93.4001 9.116 93.5981 9.752 93.8021 10.364C94.0061 10.976 94.1981 11.51 94.3781 11.966C94.5821 11.402 94.7801 10.808 94.9721 10.184C95.1761 9.548 95.3681 8.912 95.5481 8.276C95.7281 7.628 95.8961 6.998 96.0521 6.386C96.2201 5.762 96.3641 5.18 96.4841 4.64H97.8701C97.9781 5.18 98.1101 5.762 98.2661 6.386C98.4221 6.998 98.5901 7.628 98.7701 8.276C98.9501 8.912 99.1361 9.548 99.3281 10.184C99.5321 10.808 99.7361 11.402 99.9401 11.966C100.12 11.51 100.306 10.976 100.498 10.364C100.702 9.752 100.9 9.116 101.092 8.456C101.284 7.796 101.464 7.136 101.632 6.476C101.8 5.816 101.944 5.204 102.064 4.64H103.792C103.324 6.476 102.826 8.186 102.298 9.77C101.77 11.354 101.23 12.764 100.678 14H99.2201ZM107.236 14H105.562V4.64H107.236V14ZM106.39 2.948C106.09 2.948 105.832 2.852 105.616 2.66C105.412 2.456 105.31 2.186 105.31 1.85C105.31 1.514 105.412 1.25 105.616 1.058C105.832 0.853999 106.09 0.751999 106.39 0.751999C106.69 0.751999 106.942 0.853999 107.146 1.058C107.362 1.25 107.47 1.514 107.47 1.85C107.47 2.186 107.362 2.456 107.146 2.66C106.942 2.852 106.69 2.948 106.39 2.948ZM111.681 4.64H115.227V6.044H111.681V10.364C111.681 10.832 111.717 11.222 111.789 11.534C111.861 11.834 111.969 12.074 112.113 12.254C112.257 12.422 112.437 12.542 112.653 12.614C112.869 12.686 113.121 12.722 113.409 12.722C113.913 12.722 114.315 12.668 114.615 12.56C114.927 12.44 115.143 12.356 115.263 12.308L115.587 13.694C115.419 13.778 115.125 13.88 114.705 14C114.285 14.132 113.805 14.198 113.265 14.198C112.629 14.198 112.101 14.12 111.681 13.964C111.273 13.796 110.943 13.55 110.691 13.226C110.439 12.902 110.259 12.506 110.151 12.038C110.055 11.558 110.007 11.006 110.007 10.382V2.03L111.681 1.742V4.64ZM117.357 14V0.319999L119.031 0.0319996V4.82C119.343 4.7 119.673 4.61 120.021 4.55C120.381 4.478 120.735 4.442 121.083 4.442C121.827 4.442 122.445 4.55 122.937 4.766C123.429 4.97 123.819 5.264 124.107 5.648C124.407 6.02 124.617 6.47 124.737 6.998C124.857 7.526 124.917 8.108 124.917 8.744V14H123.243V9.104C123.243 8.528 123.201 8.036 123.117 7.628C123.045 7.22 122.919 6.89 122.739 6.638C122.559 6.386 122.319 6.206 122.019 6.098C121.719 5.978 121.347 5.918 120.903 5.918C120.723 5.918 120.537 5.93 120.345 5.954C120.153 5.978 119.967 6.008 119.787 6.044C119.619 6.068 119.463 6.098 119.319 6.134C119.187 6.17 119.091 6.2 119.031 6.224V14H117.357ZM139.258 13.73C138.874 13.826 138.364 13.928 137.728 14.036C137.104 14.144 136.378 14.198 135.55 14.198C134.83 14.198 134.224 14.096 133.732 13.892C133.24 13.676 132.844 13.376 132.544 12.992C132.244 12.608 132.028 12.158 131.896 11.642C131.764 11.114 131.698 10.532 131.698 9.896V4.64H133.372V9.536C133.372 10.676 133.552 11.492 133.912 11.984C134.272 12.476 134.878 12.722 135.73 12.722C135.91 12.722 136.096 12.716 136.288 12.704C136.48 12.692 136.66 12.68 136.828 12.668C136.996 12.644 137.146 12.626 137.278 12.614C137.422 12.59 137.524 12.566 137.584 12.542V4.64H139.258V13.73ZM144.32 12.794C145.004 12.794 145.508 12.704 145.832 12.524C146.168 12.344 146.336 12.056 146.336 11.66C146.336 11.252 146.174 10.928 145.85 10.688C145.526 10.448 144.992 10.178 144.248 9.878C143.888 9.734 143.54 9.59 143.204 9.446C142.88 9.29 142.598 9.11 142.358 8.906C142.118 8.702 141.926 8.456 141.782 8.168C141.638 7.88 141.566 7.526 141.566 7.106C141.566 6.278 141.872 5.624 142.484 5.144C143.096 4.652 143.93 4.406 144.986 4.406C145.25 4.406 145.514 4.424 145.778 4.46C146.042 4.484 146.288 4.52 146.516 4.568C146.744 4.604 146.942 4.646 147.11 4.694C147.29 4.742 147.428 4.784 147.524 4.82L147.218 6.26C147.038 6.164 146.756 6.068 146.372 5.972C145.988 5.864 145.526 5.81 144.986 5.81C144.518 5.81 144.11 5.906 143.762 6.098C143.414 6.278 143.24 6.566 143.24 6.962C143.24 7.166 143.276 7.346 143.348 7.502C143.432 7.658 143.552 7.802 143.708 7.934C143.876 8.054 144.08 8.168 144.32 8.276C144.56 8.384 144.848 8.498 145.184 8.618C145.628 8.786 146.024 8.954 146.372 9.122C146.72 9.278 147.014 9.464 147.254 9.68C147.506 9.896 147.698 10.16 147.83 10.472C147.962 10.772 148.028 11.144 148.028 11.588C148.028 12.452 147.704 13.106 147.056 13.55C146.42 13.994 145.508 14.216 144.32 14.216C143.492 14.216 142.844 14.144 142.376 14C141.908 13.868 141.59 13.766 141.422 13.694L141.728 12.254C141.92 12.326 142.226 12.434 142.646 12.578C143.066 12.722 143.624 12.794 144.32 12.794ZM152.12 4.91C152.12 5.918 152.084 6.836 152.012 7.664C151.94 8.48 151.85 9.296 151.742 10.112H150.698C150.59 9.296 150.5 8.48 150.428 7.664C150.356 6.836 150.32 5.918 150.32 4.91V1.526H152.12V4.91ZM152.426 13.028C152.426 13.352 152.318 13.634 152.102 13.874C151.886 14.114 151.592 14.234 151.22 14.234C150.848 14.234 150.554 14.114 150.338 13.874C150.122 13.634 150.014 13.352 150.014 13.028C150.014 12.704 150.122 12.422 150.338 12.182C150.554 11.942 150.848 11.822 151.22 11.822C151.592 11.822 151.886 11.942 152.102 12.182C152.318 12.422 152.426 12.704 152.426 13.028Z" fill="white"/>
</g>
<defs>
<filter id="filter0_d_0_1" x="15.1565" y="0.0319824" width="141.269" height="22.238" filterUnits="userSpaceOnUse" color-interpolation-filters="sRGB">
<feFlood flood-opacity="0" result="BackgroundImageFix"/>
<feColorMatrix in="SourceAlpha" type="matrix" values="0 0 0 0 0 0 0 0 0 0 0 0 0 0 0 0 0 0 127 0" result="hardAlpha"/>
<feOffset dy="4"/>
<feGaussianBlur stdDeviation="2"/>
<feComposite in2="hardAlpha" operator="out"/>
<feColorMatrix type="matrix" values="0 0 0 0 0 0 0 0 0 0 0 0 0 0 0 0 0 0 0.25 0"/>
<feBlend mode="normal" in2="BackgroundImageFix" result="effect1_dropShadow_0_1"/>
<feBlend mode="normal" in="SourceGraphic" in2="effect1_dropShadow_0_1" result="shape"/>
</filter>
</defs>
</svg>


