<svg width="392" height="89" viewBox="0 0 392 89" fill="none" xmlns="http://www.w3.org/2000/svg">
<g filter="url(#filter0_d_0_1)">
<path d="M4.548 79V66.526H12.162V68.02H6.294V71.728H11.514V73.186H6.294V77.506H12.612V79H4.548ZM13.7512 72.826H18.1972V74.392H13.7512V72.826ZM20.1021 69.91C20.4861 69.814 20.9901 69.712 21.6141 69.604C22.2501 69.496 22.9821 69.442 23.8101 69.442C24.4101 69.442 24.9141 69.526 25.3221 69.694C25.7301 69.85 26.0721 70.084 26.3481 70.396C26.4321 70.336 26.5641 70.252 26.7441 70.144C26.9241 70.036 27.1461 69.934 27.4101 69.838C27.6741 69.73 27.9681 69.64 28.2921 69.568C28.6161 69.484 28.9641 69.442 29.3361 69.442C30.0561 69.442 30.6441 69.55 31.1001 69.766C31.5561 69.97 31.9101 70.264 32.1621 70.648C32.4261 71.032 32.6001 71.488 32.6841 72.016C32.7801 72.544 32.8281 73.12 32.8281 73.744V79H31.1541V74.104C31.1541 73.552 31.1241 73.078 31.0641 72.682C31.0161 72.286 30.9141 71.956 30.7581 71.692C30.6141 71.428 30.4101 71.236 30.1461 71.116C29.8941 70.984 29.5641 70.918 29.1561 70.918C28.5921 70.918 28.1241 70.996 27.7521 71.152C27.3921 71.296 27.1461 71.428 27.0141 71.548C27.1101 71.86 27.1821 72.202 27.2301 72.574C27.2781 72.946 27.3021 73.336 27.3021 73.744V79H25.6281V74.104C25.6281 73.552 25.5981 73.078 25.5381 72.682C25.4781 72.286 25.3701 71.956 25.2141 71.692C25.0701 71.428 24.8661 71.236 24.6021 71.116C24.3501 70.984 24.0261 70.918 23.6301 70.918C23.4621 70.918 23.2821 70.924 23.0901 70.936C22.8981 70.948 22.7121 70.966 22.5321 70.99C22.3641 71.002 22.2081 71.02 22.0641 71.044C21.9201 71.068 21.8241 71.086 21.7761 71.098V79H20.1021V69.91ZM38.774 77.794C39.17 77.794 39.518 77.788 39.818 77.776C40.13 77.752 40.388 77.716 40.592 77.668V74.878C40.472 74.818 40.274 74.77 39.998 74.734C39.734 74.686 39.41 74.662 39.026 74.662C38.774 74.662 38.504 74.68 38.216 74.716C37.94 74.752 37.682 74.83 37.442 74.95C37.214 75.058 37.022 75.214 36.866 75.418C36.71 75.61 36.632 75.868 36.632 76.192C36.632 76.792 36.824 77.212 37.208 77.452C37.592 77.68 38.114 77.794 38.774 77.794ZM38.63 69.406C39.302 69.406 39.866 69.496 40.322 69.676C40.79 69.844 41.162 70.09 41.438 70.414C41.726 70.726 41.93 71.104 42.05 71.548C42.17 71.98 42.23 72.46 42.23 72.988V78.838C42.086 78.862 41.882 78.898 41.618 78.946C41.366 78.982 41.078 79.018 40.754 79.054C40.43 79.09 40.076 79.12 39.692 79.144C39.32 79.18 38.948 79.198 38.576 79.198C38.048 79.198 37.562 79.144 37.118 79.036C36.674 78.928 36.29 78.76 35.966 78.532C35.642 78.292 35.39 77.98 35.21 77.596C35.03 77.212 34.94 76.75 34.94 76.21C34.94 75.694 35.042 75.25 35.246 74.878C35.462 74.506 35.75 74.206 36.11 73.978C36.47 73.75 36.89 73.582 37.37 73.474C37.85 73.366 38.354 73.312 38.882 73.312C39.05 73.312 39.224 73.324 39.404 73.348C39.584 73.36 39.752 73.384 39.908 73.42C40.076 73.444 40.22 73.468 40.34 73.492C40.46 73.516 40.544 73.534 40.592 73.546V73.078C40.592 72.802 40.562 72.532 40.502 72.268C40.442 71.992 40.334 71.752 40.178 71.548C40.022 71.332 39.806 71.164 39.53 71.044C39.266 70.912 38.918 70.846 38.486 70.846C37.934 70.846 37.448 70.888 37.028 70.972C36.62 71.044 36.314 71.122 36.11 71.206L35.912 69.82C36.128 69.724 36.488 69.634 36.992 69.55C37.496 69.454 38.042 69.406 38.63 69.406ZM46.6843 79H45.0103V69.64H46.6843V79ZM45.8383 67.948C45.5383 67.948 45.2803 67.852 45.0643 67.66C44.8603 67.456 44.7583 67.186 44.7583 66.85C44.7583 66.514 44.8603 66.25 45.0643 66.058C45.2803 65.854 45.5383 65.752 45.8383 65.752C46.1383 65.752 46.3903 65.854 46.5943 66.058C46.8103 66.25 46.9183 66.514 46.9183 66.85C46.9183 67.186 46.8103 67.456 46.5943 67.66C46.3903 67.852 46.1383 67.948 45.8383 67.948ZM52.371 79.18C51.339 79.156 50.607 78.934 50.175 78.514C49.743 78.094 49.527 77.44 49.527 76.552V65.32L51.201 65.032V76.282C51.201 76.558 51.225 76.786 51.273 76.966C51.321 77.146 51.399 77.29 51.507 77.398C51.615 77.506 51.759 77.59 51.939 77.65C52.119 77.698 52.341 77.74 52.605 77.776L52.371 79.18ZM56.4649 78.028C56.4649 78.352 56.3569 78.634 56.1409 78.874C55.9249 79.114 55.6309 79.234 55.2589 79.234C54.8869 79.234 54.5929 79.114 54.3769 78.874C54.1609 78.634 54.0529 78.352 54.0529 78.028C54.0529 77.704 54.1609 77.422 54.3769 77.182C54.5929 76.942 54.8869 76.822 55.2589 76.822C55.6309 76.822 55.9249 76.942 56.1409 77.182C56.3569 77.422 56.4649 77.704 56.4649 78.028ZM56.4649 70.846C56.4649 71.17 56.3569 71.452 56.1409 71.692C55.9249 71.932 55.6309 72.052 55.2589 72.052C54.8869 72.052 54.5929 71.932 54.3769 71.692C54.1609 71.452 54.0529 71.17 54.0529 70.846C54.0529 70.522 54.1609 70.24 54.3769 70C54.5929 69.76 54.8869 69.64 55.2589 69.64C55.6309 69.64 55.9249 69.76 56.1409 70C56.3569 70.24 56.4649 70.522 56.4649 70.846Z" fill="white"/>
<path d="M79.5525 69.054C79.7565 68.922 80.0625 68.784 80.4705 68.64C80.8905 68.496 81.3705 68.424 81.9105 68.424C82.5825 68.424 83.1765 68.544 83.6925 68.784C84.2205 69.024 84.6645 69.36 85.0245 69.792C85.3845 70.224 85.6545 70.74 85.8345 71.34C86.0265 71.94 86.1225 72.6 86.1225 73.32C86.1225 74.076 86.0085 74.76 85.7805 75.372C85.5645 75.972 85.2525 76.482 84.8445 76.902C84.4365 77.322 83.9445 77.646 83.3685 77.874C82.7925 78.102 82.1445 78.216 81.4245 78.216C80.6445 78.216 79.9545 78.162 79.3545 78.054C78.7545 77.946 78.2625 77.838 77.8785 77.73V64.32L79.5525 64.032V69.054ZM79.5525 76.542C79.7205 76.59 79.9545 76.638 80.2545 76.686C80.5665 76.722 80.9505 76.74 81.4065 76.74C82.3065 76.74 83.0265 76.446 83.5665 75.858C84.1065 75.258 84.3765 74.412 84.3765 73.32C84.3765 72.84 84.3285 72.39 84.2325 71.97C84.1365 71.55 83.9805 71.19 83.7645 70.89C83.5485 70.578 83.2665 70.338 82.9185 70.17C82.5825 69.99 82.1745 69.9 81.6945 69.9C81.2385 69.9 80.8185 69.978 80.4345 70.134C80.0505 70.29 79.7565 70.452 79.5525 70.62V76.542ZM96.7401 73.32C96.7401 74.064 96.6321 74.736 96.4161 75.336C96.2001 75.936 95.8941 76.452 95.4981 76.884C95.1141 77.316 94.6521 77.652 94.1121 77.892C93.5721 78.12 92.9841 78.234 92.3481 78.234C91.7121 78.234 91.1241 78.12 90.5841 77.892C90.0441 77.652 89.5761 77.316 89.1801 76.884C88.7961 76.452 88.4961 75.936 88.2801 75.336C88.0641 74.736 87.9561 74.064 87.9561 73.32C87.9561 72.588 88.0641 71.922 88.2801 71.322C88.4961 70.71 88.7961 70.188 89.1801 69.756C89.5761 69.324 90.0441 68.994 90.5841 68.766C91.1241 68.526 91.7121 68.406 92.3481 68.406C92.9841 68.406 93.5721 68.526 94.1121 68.766C94.6521 68.994 95.1141 69.324 95.4981 69.756C95.8941 70.188 96.2001 70.71 96.4161 71.322C96.6321 71.922 96.7401 72.588 96.7401 73.32ZM94.9941 73.32C94.9941 72.264 94.7541 71.43 94.2741 70.818C93.8061 70.194 93.1641 69.882 92.3481 69.882C91.5321 69.882 90.8841 70.194 90.4041 70.818C89.9361 71.43 89.7021 72.264 89.7021 73.32C89.7021 74.376 89.9361 75.216 90.4041 75.84C90.8841 76.452 91.5321 76.758 92.3481 76.758C93.1641 76.758 93.8061 76.452 94.2741 75.84C94.7541 75.216 94.9941 74.376 94.9941 73.32ZM99.0953 68.91C99.4793 68.814 99.9893 68.712 100.625 68.604C101.261 68.496 101.993 68.442 102.821 68.442C103.565 68.442 104.183 68.55 104.675 68.766C105.167 68.97 105.557 69.264 105.845 69.648C106.145 70.02 106.355 70.47 106.475 70.998C106.595 71.526 106.655 72.108 106.655 72.744V78H104.981V73.104C104.981 72.528 104.939 72.036 104.855 71.628C104.783 71.22 104.657 70.89 104.477 70.638C104.297 70.386 104.057 70.206 103.757 70.098C103.457 69.978 103.085 69.918 102.641 69.918C102.461 69.918 102.275 69.924 102.083 69.936C101.891 69.948 101.705 69.966 101.525 69.99C101.357 70.002 101.201 70.02 101.057 70.044C100.925 70.068 100.829 70.086 100.769 70.098V78H99.0953V68.91ZM115.641 69.9C115.389 70.176 115.053 70.566 114.633 71.07C114.225 71.574 113.781 72.132 113.301 72.744C112.833 73.356 112.359 73.998 111.879 74.67C111.411 75.342 110.997 75.984 110.637 76.596H115.785V78H108.639V76.884C108.927 76.356 109.281 75.774 109.701 75.138C110.121 74.502 110.559 73.872 111.015 73.248C111.483 72.612 111.933 72.018 112.365 71.466C112.809 70.902 113.193 70.428 113.517 70.044H108.891V68.64H115.641V69.9ZM128.884 77.226C128.5 77.226 128.182 77.172 127.93 77.064C127.678 76.956 127.468 76.812 127.3 76.632C127.036 76.776 126.718 76.902 126.346 77.01C125.974 77.106 125.602 77.154 125.23 77.154C124.654 77.154 124.126 77.064 123.646 76.884C123.178 76.704 122.77 76.44 122.422 76.092C122.074 75.732 121.804 75.294 121.612 74.778C121.42 74.262 121.324 73.662 121.324 72.978C121.324 72.402 121.414 71.862 121.594 71.358C121.774 70.842 122.038 70.398 122.386 70.026C122.746 69.642 123.178 69.342 123.682 69.126C124.198 68.91 124.78 68.802 125.428 68.802C126.04 68.802 126.598 68.85 127.102 68.946C127.618 69.042 128.014 69.138 128.29 69.234V74.742C128.29 75.126 128.356 75.396 128.488 75.552C128.62 75.708 128.794 75.786 129.01 75.786C129.322 75.786 129.592 75.678 129.82 75.462C130.06 75.246 130.252 74.964 130.396 74.616C130.552 74.268 130.666 73.878 130.738 73.446C130.81 73.002 130.846 72.552 130.846 72.096C130.846 71.34 130.714 70.632 130.45 69.972C130.186 69.3 129.808 68.712 129.316 68.208C128.824 67.704 128.224 67.308 127.516 67.02C126.82 66.732 126.034 66.588 125.158 66.588C124.282 66.588 123.478 66.738 122.746 67.038C122.014 67.326 121.384 67.746 120.856 68.298C120.328 68.838 119.914 69.504 119.614 70.296C119.326 71.088 119.182 71.988 119.182 72.996C119.182 74.052 119.338 74.982 119.65 75.786C119.962 76.578 120.394 77.244 120.946 77.784C121.51 78.312 122.17 78.708 122.926 78.972C123.694 79.248 124.534 79.386 125.446 79.386C126.154 79.386 126.736 79.344 127.192 79.26C127.66 79.176 127.96 79.11 128.092 79.062L128.272 80.394C128.068 80.466 127.696 80.544 127.156 80.628C126.628 80.712 126.058 80.754 125.446 80.754C124.378 80.754 123.37 80.598 122.422 80.286C121.474 79.986 120.646 79.518 119.938 78.882C119.23 78.258 118.666 77.46 118.246 76.488C117.838 75.504 117.634 74.34 117.634 72.996C117.634 71.7 117.838 70.566 118.246 69.594C118.654 68.622 119.2 67.818 119.884 67.182C120.58 66.534 121.378 66.048 122.278 65.724C123.19 65.4 124.15 65.238 125.158 65.238C126.142 65.238 127.072 65.4 127.948 65.724C128.824 66.036 129.592 66.498 130.252 67.11C130.912 67.71 131.434 68.442 131.818 69.306C132.202 70.158 132.394 71.124 132.394 72.204C132.394 73.02 132.298 73.74 132.106 74.364C131.926 74.988 131.68 75.516 131.368 75.948C131.056 76.368 130.684 76.686 130.252 76.902C129.82 77.118 129.364 77.226 128.884 77.226ZM125.284 75.768C125.536 75.768 125.788 75.744 126.04 75.696C126.304 75.636 126.538 75.552 126.742 75.444C126.706 75.288 126.682 75.132 126.67 74.976C126.658 74.82 126.652 74.67 126.652 74.526V70.296C126.58 70.272 126.442 70.248 126.238 70.224C126.034 70.2 125.806 70.188 125.554 70.188C124.702 70.188 124.066 70.452 123.646 70.98C123.226 71.508 123.016 72.174 123.016 72.978C123.016 73.83 123.22 74.508 123.628 75.012C124.036 75.516 124.588 75.768 125.284 75.768ZM138.175 76.794C138.571 76.794 138.919 76.788 139.219 76.776C139.531 76.752 139.789 76.716 139.993 76.668V73.878C139.873 73.818 139.675 73.77 139.399 73.734C139.135 73.686 138.811 73.662 138.427 73.662C138.175 73.662 137.905 73.68 137.617 73.716C137.341 73.752 137.083 73.83 136.843 73.95C136.615 74.058 136.423 74.214 136.267 74.418C136.111 74.61 136.033 74.868 136.033 75.192C136.033 75.792 136.225 76.212 136.609 76.452C136.993 76.68 137.515 76.794 138.175 76.794ZM138.031 68.406C138.703 68.406 139.267 68.496 139.723 68.676C140.191 68.844 140.563 69.09 140.839 69.414C141.127 69.726 141.331 70.104 141.451 70.548C141.571 70.98 141.631 71.46 141.631 71.988V77.838C141.487 77.862 141.283 77.898 141.019 77.946C140.767 77.982 140.479 78.018 140.155 78.054C139.831 78.09 139.477 78.12 139.093 78.144C138.721 78.18 138.349 78.198 137.977 78.198C137.449 78.198 136.963 78.144 136.519 78.036C136.075 77.928 135.691 77.76 135.367 77.532C135.043 77.292 134.791 76.98 134.611 76.596C134.431 76.212 134.341 75.75 134.341 75.21C134.341 74.694 134.443 74.25 134.647 73.878C134.863 73.506 135.151 73.206 135.511 72.978C135.871 72.75 136.291 72.582 136.771 72.474C137.251 72.366 137.755 72.312 138.283 72.312C138.451 72.312 138.625 72.324 138.805 72.348C138.985 72.36 139.153 72.384 139.309 72.42C139.477 72.444 139.621 72.468 139.741 72.492C139.861 72.516 139.945 72.534 139.993 72.546V72.078C139.993 71.802 139.963 71.532 139.903 71.268C139.843 70.992 139.735 70.752 139.579 70.548C139.423 70.332 139.207 70.164 138.931 70.044C138.667 69.912 138.319 69.846 137.887 69.846C137.335 69.846 136.849 69.888 136.429 69.972C136.021 70.044 135.715 70.122 135.511 70.206L135.313 68.82C135.529 68.724 135.889 68.634 136.393 68.55C136.897 68.454 137.443 68.406 138.031 68.406ZM146.086 78H144.412V68.64H146.086V78ZM145.24 66.948C144.94 66.948 144.682 66.852 144.466 66.66C144.262 66.456 144.16 66.186 144.16 65.85C144.16 65.514 144.262 65.25 144.466 65.058C144.682 64.854 144.94 64.752 145.24 64.752C145.54 64.752 145.792 64.854 145.996 65.058C146.212 65.25 146.32 65.514 146.32 65.85C146.32 66.186 146.212 66.456 145.996 66.66C145.792 66.852 145.54 66.948 145.24 66.948ZM150.944 77.028C150.944 77.352 150.836 77.634 150.62 77.874C150.404 78.114 150.11 78.234 149.738 78.234C149.366 78.234 149.072 78.114 148.856 77.874C148.64 77.634 148.532 77.352 148.532 77.028C148.532 76.704 148.64 76.422 148.856 76.182C149.072 75.942 149.366 75.822 149.738 75.822C150.11 75.822 150.404 75.942 150.62 76.182C150.836 76.422 150.944 76.704 150.944 77.028ZM157.462 78.216C156.706 78.216 156.04 78.096 155.464 77.856C154.9 77.616 154.42 77.28 154.024 76.848C153.64 76.416 153.352 75.906 153.16 75.318C152.968 74.718 152.872 74.058 152.872 73.338C152.872 72.618 152.974 71.958 153.178 71.358C153.394 70.758 153.694 70.242 154.078 69.81C154.462 69.366 154.93 69.024 155.482 68.784C156.046 68.532 156.67 68.406 157.354 68.406C157.774 68.406 158.194 68.442 158.614 68.514C159.034 68.586 159.436 68.7 159.82 68.856L159.442 70.278C159.19 70.158 158.896 70.062 158.56 69.99C158.236 69.918 157.888 69.882 157.516 69.882C156.58 69.882 155.86 70.176 155.356 70.764C154.864 71.352 154.618 72.21 154.618 73.338C154.618 73.842 154.672 74.304 154.78 74.724C154.9 75.144 155.08 75.504 155.32 75.804C155.572 76.104 155.89 76.338 156.274 76.506C156.658 76.662 157.126 76.74 157.678 76.74C158.122 76.74 158.524 76.698 158.884 76.614C159.244 76.53 159.526 76.44 159.73 76.344L159.964 77.748C159.868 77.808 159.73 77.868 159.55 77.928C159.37 77.976 159.166 78.018 158.938 78.054C158.71 78.102 158.464 78.138 158.2 78.162C157.948 78.198 157.702 78.216 157.462 78.216ZM169.795 73.32C169.795 74.064 169.687 74.736 169.471 75.336C169.255 75.936 168.949 76.452 168.553 76.884C168.169 77.316 167.707 77.652 167.167 77.892C166.627 78.12 166.039 78.234 165.403 78.234C164.767 78.234 164.179 78.12 163.639 77.892C163.099 77.652 162.631 77.316 162.235 76.884C161.851 76.452 161.551 75.936 161.335 75.336C161.119 74.736 161.011 74.064 161.011 73.32C161.011 72.588 161.119 71.922 161.335 71.322C161.551 70.71 161.851 70.188 162.235 69.756C162.631 69.324 163.099 68.994 163.639 68.766C164.179 68.526 164.767 68.406 165.403 68.406C166.039 68.406 166.627 68.526 167.167 68.766C167.707 68.994 168.169 69.324 168.553 69.756C168.949 70.188 169.255 70.71 169.471 71.322C169.687 71.922 169.795 72.588 169.795 73.32ZM168.049 73.32C168.049 72.264 167.809 71.43 167.329 70.818C166.861 70.194 166.219 69.882 165.403 69.882C164.587 69.882 163.939 70.194 163.459 70.818C162.991 71.43 162.757 72.264 162.757 73.32C162.757 74.376 162.991 75.216 163.459 75.84C163.939 76.452 164.587 76.758 165.403 76.758C166.219 76.758 166.861 76.452 167.329 75.84C167.809 75.216 168.049 74.376 168.049 73.32ZM172.15 68.91C172.534 68.814 173.038 68.712 173.662 68.604C174.298 68.496 175.03 68.442 175.858 68.442C176.458 68.442 176.962 68.526 177.37 68.694C177.778 68.85 178.12 69.084 178.396 69.396C178.48 69.336 178.612 69.252 178.792 69.144C178.972 69.036 179.194 68.934 179.458 68.838C179.722 68.73 180.016 68.64 180.34 68.568C180.664 68.484 181.012 68.442 181.384 68.442C182.104 68.442 182.692 68.55 183.148 68.766C183.604 68.97 183.958 69.264 184.21 69.648C184.474 70.032 184.648 70.488 184.732 71.016C184.828 71.544 184.876 72.12 184.876 72.744V78H183.202V73.104C183.202 72.552 183.172 72.078 183.112 71.682C183.064 71.286 182.962 70.956 182.806 70.692C182.662 70.428 182.458 70.236 182.194 70.116C181.942 69.984 181.612 69.918 181.204 69.918C180.64 69.918 180.172 69.996 179.8 70.152C179.44 70.296 179.194 70.428 179.062 70.548C179.158 70.86 179.23 71.202 179.278 71.574C179.326 71.946 179.35 72.336 179.35 72.744V78H177.676V73.104C177.676 72.552 177.646 72.078 177.586 71.682C177.526 71.286 177.418 70.956 177.262 70.692C177.118 70.428 176.914 70.236 176.65 70.116C176.398 69.984 176.074 69.918 175.678 69.918C175.51 69.918 175.33 69.924 175.138 69.936C174.946 69.948 174.76 69.966 174.58 69.99C174.412 70.002 174.256 70.02 174.112 70.044C173.968 70.068 173.872 70.086 173.824 70.098V78H172.15V68.91Z" fill="white"/>
</g>
<g filter="url(#filter1_d_0_1)">
<path d="M7.86 35.4C9.612 35.4 10.956 35.736 11.892 36.408C12.84 37.068 13.314 38.058 13.314 39.378C13.314 40.098 13.182 40.716 12.918 41.232C12.666 41.736 12.294 42.15 11.802 42.474C11.322 42.786 10.734 43.014 10.038 43.158C9.342 43.302 8.556 43.374 7.68 43.374H6.294V48H4.548V35.706C5.04 35.586 5.586 35.508 6.186 35.472C6.798 35.424 7.356 35.4 7.86 35.4ZM8.004 36.93C7.26 36.93 6.69 36.948 6.294 36.984V41.88H7.608C8.208 41.88 8.748 41.844 9.228 41.772C9.708 41.688 10.11 41.556 10.434 41.376C10.77 41.184 11.028 40.926 11.208 40.602C11.388 40.278 11.478 39.864 11.478 39.36C11.478 38.88 11.382 38.484 11.19 38.172C11.01 37.86 10.758 37.614 10.434 37.434C10.122 37.242 9.756 37.11 9.336 37.038C8.916 36.966 8.472 36.93 8.004 36.93ZM15.3912 48V34.32L17.0652 34.032V38.82C17.3772 38.7 17.7072 38.61 18.0552 38.55C18.4152 38.478 18.7692 38.442 19.1172 38.442C19.8612 38.442 20.4792 38.55 20.9712 38.766C21.4632 38.97 21.8532 39.264 22.1412 39.648C22.4412 40.02 22.6512 40.47 22.7712 40.998C22.8912 41.526 22.9512 42.108 22.9512 42.744V48H21.2772V43.104C21.2772 42.528 21.2352 42.036 21.1512 41.628C21.0792 41.22 20.9532 40.89 20.7732 40.638C20.5932 40.386 20.3532 40.206 20.0532 40.098C19.7532 39.978 19.3812 39.918 18.9372 39.918C18.7572 39.918 18.5712 39.93 18.3792 39.954C18.1872 39.978 18.0012 40.008 17.8212 40.044C17.6532 40.068 17.4972 40.098 17.3532 40.134C17.2212 40.17 17.1252 40.2 17.0652 40.224V48H15.3912ZM33.9364 43.32C33.9364 44.064 33.8284 44.736 33.6124 45.336C33.3964 45.936 33.0904 46.452 32.6944 46.884C32.3104 47.316 31.8484 47.652 31.3084 47.892C30.7684 48.12 30.1804 48.234 29.5444 48.234C28.9084 48.234 28.3204 48.12 27.7804 47.892C27.2404 47.652 26.7724 47.316 26.3764 46.884C25.9924 46.452 25.6924 45.936 25.4764 45.336C25.2604 44.736 25.1524 44.064 25.1524 43.32C25.1524 42.588 25.2604 41.922 25.4764 41.322C25.6924 40.71 25.9924 40.188 26.3764 39.756C26.7724 39.324 27.2404 38.994 27.7804 38.766C28.3204 38.526 28.9084 38.406 29.5444 38.406C30.1804 38.406 30.7684 38.526 31.3084 38.766C31.8484 38.994 32.3104 39.324 32.6944 39.756C33.0904 40.188 33.3964 40.71 33.6124 41.322C33.8284 41.922 33.9364 42.588 33.9364 43.32ZM32.1904 43.32C32.1904 42.264 31.9504 41.43 31.4704 40.818C31.0024 40.194 30.3604 39.882 29.5444 39.882C28.7284 39.882 28.0804 40.194 27.6004 40.818C27.1324 41.43 26.8984 42.264 26.8984 43.32C26.8984 44.376 27.1324 45.216 27.6004 45.84C28.0804 46.452 28.7284 46.758 29.5444 46.758C30.3604 46.758 31.0024 46.452 31.4704 45.84C31.9504 45.216 32.1904 44.376 32.1904 43.32ZM36.2916 38.91C36.6756 38.814 37.1856 38.712 37.8216 38.604C38.4576 38.496 39.1896 38.442 40.0176 38.442C40.7616 38.442 41.3796 38.55 41.8716 38.766C42.3636 38.97 42.7536 39.264 43.0416 39.648C43.3416 40.02 43.5516 40.47 43.6716 40.998C43.7916 41.526 43.8516 42.108 43.8516 42.744V48H42.1776V43.104C42.1776 42.528 42.1356 42.036 42.0516 41.628C41.9796 41.22 41.8536 40.89 41.6736 40.638C41.4936 40.386 41.2536 40.206 40.9536 40.098C40.6536 39.978 40.2816 39.918 39.8376 39.918C39.6576 39.918 39.4716 39.924 39.2796 39.936C39.0876 39.948 38.9016 39.966 38.7216 39.99C38.5536 40.002 38.3976 40.02 38.2536 40.044C38.1216 40.068 38.0256 40.086 37.9656 40.098V48H36.2916V38.91ZM46.1055 43.338C46.1055 42.51 46.2255 41.79 46.4655 41.178C46.7055 40.554 47.0235 40.038 47.4195 39.63C47.8155 39.222 48.2715 38.916 48.7875 38.712C49.3035 38.508 49.8315 38.406 50.3715 38.406C51.6315 38.406 52.5975 38.802 53.2695 39.594C53.9415 40.374 54.2775 41.568 54.2775 43.176C54.2775 43.248 54.2775 43.344 54.2775 43.464C54.2775 43.572 54.2715 43.674 54.2595 43.77H47.8515C47.9235 44.742 48.2055 45.48 48.6975 45.984C49.1895 46.488 49.9575 46.74 51.0015 46.74C51.5895 46.74 52.0815 46.692 52.4775 46.596C52.8855 46.488 53.1915 46.386 53.3955 46.29L53.6295 47.694C53.4255 47.802 53.0655 47.916 52.5495 48.036C52.0455 48.156 51.4695 48.216 50.8215 48.216C50.0055 48.216 49.2975 48.096 48.6975 47.856C48.1095 47.604 47.6235 47.262 47.2395 46.83C46.8555 46.398 46.5675 45.888 46.3755 45.3C46.1955 44.7 46.1055 44.046 46.1055 43.338ZM52.5315 42.42C52.5435 41.664 52.3515 41.046 51.9555 40.566C51.5715 40.074 51.0375 39.828 50.3535 39.828C49.9695 39.828 49.6275 39.906 49.3275 40.062C49.0395 40.206 48.7935 40.398 48.5895 40.638C48.3855 40.878 48.2235 41.154 48.1035 41.466C47.9955 41.778 47.9235 42.096 47.8875 42.42H52.5315ZM58.6622 47.028C58.6622 47.352 58.5542 47.634 58.3382 47.874C58.1222 48.114 57.8282 48.234 57.4562 48.234C57.0842 48.234 56.7902 48.114 56.5742 47.874C56.3582 47.634 56.2502 47.352 56.2502 47.028C56.2502 46.704 56.3582 46.422 56.5742 46.182C56.7902 45.942 57.0842 45.822 57.4562 45.822C57.8282 45.822 58.1222 45.942 58.3382 46.182C58.5542 46.422 58.6622 46.704 58.6622 47.028ZM58.6622 39.846C58.6622 40.17 58.5542 40.452 58.3382 40.692C58.1222 40.932 57.8282 41.052 57.4562 41.052C57.0842 41.052 56.7902 40.932 56.5742 40.692C56.3582 40.452 56.2502 40.17 56.2502 39.846C56.2502 39.522 56.3582 39.24 56.5742 39C56.7902 38.76 57.0842 38.64 57.4562 38.64C57.8282 38.64 58.1222 38.76 58.3382 39C58.5542 39.24 58.6622 39.522 58.6622 39.846Z" fill="white"/>
<path d="M89.7164 42.618C89.7164 44.154 89.9384 45.576 90.3824 46.884C90.8264 48.192 91.4804 49.404 92.3444 50.52L91.1564 51.33C90.2204 50.19 89.4644 48.882 88.8884 47.406C88.3244 45.918 88.0424 44.322 88.0424 42.618C88.0424 40.914 88.3244 39.324 88.8884 37.848C89.4644 36.36 90.2204 35.046 91.1564 33.906L92.3444 34.716C91.4804 35.832 90.8264 37.044 90.3824 38.352C89.9384 39.66 89.7164 41.082 89.7164 42.618ZM94.1484 38.1C94.8324 37.836 95.4984 37.5 96.1464 37.092C96.7944 36.672 97.3884 36.15 97.9284 35.526H99.1164V48H97.4424V37.848C97.2984 37.98 97.1184 38.118 96.9024 38.262C96.6984 38.406 96.4704 38.544 96.2184 38.676C95.9784 38.808 95.7204 38.934 95.4444 39.054C95.1804 39.174 94.9224 39.276 94.6704 39.36L94.1484 38.1ZM111.041 38.712C111.041 39.144 110.951 39.564 110.771 39.972C110.603 40.368 110.375 40.764 110.087 41.16C109.799 41.544 109.475 41.928 109.115 42.312C108.755 42.684 108.395 43.05 108.035 43.41C107.831 43.614 107.591 43.854 107.315 44.13C107.051 44.406 106.799 44.694 106.559 44.994C106.319 45.294 106.115 45.582 105.947 45.858C105.791 46.134 105.713 46.374 105.713 46.578H111.455V48H103.895C103.883 47.928 103.877 47.856 103.877 47.784C103.877 47.712 103.877 47.646 103.877 47.586C103.877 47.022 103.967 46.5 104.147 46.02C104.339 45.528 104.585 45.066 104.885 44.634C105.185 44.202 105.521 43.794 105.893 43.41C106.265 43.026 106.631 42.654 106.991 42.294C107.291 42.006 107.573 41.724 107.837 41.448C108.113 41.16 108.353 40.878 108.557 40.602C108.773 40.314 108.941 40.02 109.061 39.72C109.193 39.42 109.259 39.102 109.259 38.766C109.259 38.406 109.199 38.1 109.079 37.848C108.971 37.596 108.821 37.386 108.629 37.218C108.437 37.05 108.209 36.93 107.945 36.858C107.693 36.774 107.423 36.732 107.135 36.732C106.787 36.732 106.469 36.78 106.181 36.876C105.893 36.972 105.635 37.086 105.407 37.218C105.179 37.338 104.987 37.47 104.831 37.614C104.675 37.746 104.555 37.848 104.471 37.92L103.643 36.732C103.751 36.612 103.913 36.468 104.129 36.3C104.345 36.12 104.603 35.952 104.903 35.796C105.203 35.64 105.539 35.508 105.911 35.4C106.283 35.292 106.685 35.238 107.117 35.238C108.425 35.238 109.403 35.544 110.051 36.156C110.711 36.756 111.041 37.608 111.041 38.712ZM116.863 46.776C117.931 46.776 118.693 46.566 119.149 46.146C119.617 45.726 119.851 45.162 119.851 44.454C119.851 43.998 119.755 43.614 119.563 43.302C119.371 42.99 119.119 42.744 118.807 42.564C118.495 42.372 118.129 42.24 117.709 42.168C117.301 42.084 116.881 42.042 116.449 42.042H116.017V40.674H116.611C116.911 40.674 117.217 40.644 117.529 40.584C117.853 40.524 118.147 40.416 118.411 40.26C118.675 40.104 118.891 39.894 119.059 39.63C119.227 39.354 119.311 39.012 119.311 38.604C119.311 38.268 119.251 37.98 119.131 37.74C119.011 37.5 118.849 37.302 118.645 37.146C118.453 36.99 118.225 36.882 117.961 36.822C117.709 36.75 117.439 36.714 117.151 36.714C116.575 36.714 116.083 36.798 115.675 36.966C115.279 37.134 114.943 37.308 114.667 37.488L114.019 36.21C114.163 36.114 114.343 36.012 114.559 35.904C114.787 35.784 115.039 35.676 115.315 35.58C115.591 35.484 115.885 35.406 116.197 35.346C116.521 35.274 116.857 35.238 117.205 35.238C117.865 35.238 118.435 35.322 118.915 35.49C119.395 35.646 119.791 35.874 120.103 36.174C120.415 36.462 120.649 36.81 120.805 37.218C120.961 37.614 121.039 38.046 121.039 38.514C121.039 39.162 120.853 39.72 120.481 40.188C120.109 40.644 119.659 40.992 119.131 41.232C119.455 41.328 119.767 41.466 120.067 41.646C120.367 41.826 120.625 42.054 120.841 42.33C121.069 42.606 121.249 42.924 121.381 43.284C121.525 43.644 121.597 44.046 121.597 44.49C121.597 45.03 121.501 45.534 121.309 46.002C121.129 46.458 120.841 46.854 120.445 47.19C120.061 47.526 119.575 47.79 118.987 47.982C118.399 48.174 117.703 48.27 116.899 48.27C116.587 48.27 116.263 48.246 115.927 48.198C115.603 48.15 115.297 48.09 115.009 48.018C114.721 47.946 114.469 47.874 114.253 47.802C114.037 47.73 113.881 47.67 113.785 47.622L114.109 46.164C114.313 46.26 114.649 46.386 115.117 46.542C115.597 46.698 116.179 46.776 116.863 46.776ZM125.709 42.618C125.709 41.082 125.487 39.66 125.043 38.352C124.599 37.044 123.945 35.832 123.081 34.716L124.269 33.906C125.205 35.046 125.955 36.36 126.519 37.848C127.095 39.324 127.383 40.914 127.383 42.618C127.383 44.322 127.095 45.918 126.519 47.406C125.955 48.882 125.205 50.19 124.269 51.33L123.081 50.52C123.945 49.404 124.599 48.192 125.043 46.884C125.487 45.576 125.709 44.154 125.709 42.618ZM133.677 43.68C133.905 43.152 134.217 42.54 134.613 41.844C135.009 41.136 135.453 40.41 135.945 39.666C136.449 38.922 136.983 38.19 137.547 37.47C138.123 36.75 138.699 36.102 139.275 35.526H140.877V43.446H142.353V44.814H140.877V48H139.257V44.814H133.677V43.68ZM139.257 37.506C138.897 37.89 138.531 38.322 138.159 38.802C137.799 39.27 137.445 39.762 137.097 40.278C136.749 40.794 136.419 41.322 136.107 41.862C135.807 42.402 135.537 42.93 135.297 43.446H139.257V37.506ZM146.699 40.332C148.511 40.404 149.837 40.8 150.677 41.52C151.529 42.24 151.955 43.218 151.955 44.454C151.955 45.006 151.859 45.516 151.667 45.984C151.487 46.452 151.205 46.854 150.821 47.19C150.449 47.526 149.975 47.79 149.399 47.982C148.823 48.174 148.139 48.27 147.347 48.27C147.035 48.27 146.717 48.246 146.393 48.198C146.069 48.15 145.769 48.09 145.493 48.018C145.217 47.946 144.971 47.874 144.755 47.802C144.539 47.73 144.383 47.67 144.287 47.622L144.611 46.164C144.815 46.26 145.145 46.386 145.601 46.542C146.069 46.698 146.639 46.776 147.311 46.776C147.851 46.776 148.301 46.716 148.661 46.596C149.033 46.476 149.333 46.314 149.561 46.11C149.789 45.906 149.951 45.672 150.047 45.408C150.155 45.132 150.209 44.844 150.209 44.544C150.209 44.088 150.131 43.686 149.975 43.338C149.819 42.978 149.543 42.678 149.147 42.438C148.751 42.198 148.223 42.018 147.563 41.898C146.903 41.766 146.069 41.7 145.061 41.7C145.133 41.112 145.187 40.56 145.223 40.044C145.271 39.528 145.313 39.024 145.349 38.532C145.385 38.04 145.415 37.554 145.439 37.074C145.463 36.582 145.487 36.066 145.511 35.526H151.523V36.948H146.969C146.957 37.128 146.939 37.374 146.915 37.686C146.891 37.986 146.867 38.304 146.843 38.64C146.819 38.964 146.795 39.282 146.771 39.594C146.747 39.906 146.723 40.152 146.699 40.332ZM154.411 42.996C154.411 41.784 154.579 40.716 154.915 39.792C155.251 38.856 155.725 38.07 156.337 37.434C156.961 36.798 157.711 36.318 158.587 35.994C159.475 35.658 160.471 35.484 161.575 35.472L161.701 36.876C160.993 36.888 160.345 36.966 159.757 37.11C159.181 37.254 158.665 37.482 158.209 37.794C157.753 38.106 157.369 38.514 157.057 39.018C156.745 39.51 156.511 40.122 156.355 40.854C156.667 40.71 157.015 40.59 157.399 40.494C157.795 40.398 158.203 40.35 158.623 40.35C159.331 40.35 159.931 40.458 160.423 40.674C160.915 40.89 161.317 41.178 161.629 41.538C161.941 41.886 162.163 42.294 162.295 42.762C162.439 43.218 162.511 43.698 162.511 44.202C162.511 44.658 162.433 45.126 162.277 45.606C162.121 46.086 161.881 46.524 161.557 46.92C161.245 47.316 160.843 47.64 160.351 47.892C159.859 48.144 159.277 48.27 158.605 48.27C157.237 48.27 156.193 47.802 155.473 46.866C154.765 45.93 154.411 44.64 154.411 42.996ZM158.443 41.718C158.023 41.718 157.633 41.76 157.273 41.844C156.913 41.916 156.553 42.03 156.193 42.186C156.181 42.318 156.169 42.456 156.157 42.6C156.157 42.732 156.157 42.864 156.157 42.996C156.157 43.524 156.193 44.022 156.265 44.49C156.337 44.958 156.463 45.372 156.643 45.732C156.835 46.08 157.087 46.362 157.399 46.578C157.711 46.782 158.107 46.884 158.587 46.884C158.983 46.884 159.319 46.8 159.595 46.632C159.871 46.464 160.099 46.248 160.279 45.984C160.459 45.72 160.585 45.438 160.657 45.138C160.741 44.826 160.783 44.526 160.783 44.238C160.783 43.422 160.585 42.798 160.189 42.366C159.805 41.934 159.223 41.718 158.443 41.718ZM163.905 41.826H168.351V43.392H163.905V41.826ZM171.75 48C171.822 47.04 171.99 46.032 172.254 44.976C172.53 43.908 172.866 42.876 173.262 41.88C173.658 40.872 174.09 39.942 174.558 39.09C175.038 38.226 175.506 37.524 175.962 36.984H169.896V35.526H177.834V36.912C177.438 37.368 177 37.998 176.52 38.802C176.04 39.594 175.584 40.488 175.152 41.484C174.732 42.468 174.366 43.524 174.054 44.652C173.754 45.768 173.568 46.884 173.496 48H171.75ZM188.138 44.76C188.138 45.264 188.048 45.732 187.868 46.164C187.7 46.584 187.442 46.956 187.094 47.28C186.758 47.592 186.332 47.832 185.816 48C185.3 48.18 184.706 48.27 184.034 48.27C183.254 48.27 182.6 48.162 182.072 47.946C181.556 47.718 181.142 47.436 180.83 47.1C180.518 46.764 180.296 46.398 180.164 46.002C180.032 45.594 179.966 45.21 179.966 44.85C179.966 44.502 180.02 44.172 180.128 43.86C180.248 43.536 180.398 43.236 180.578 42.96C180.77 42.684 180.986 42.438 181.226 42.222C181.478 41.994 181.742 41.796 182.018 41.628C180.842 40.956 180.254 39.966 180.254 38.658C180.254 38.202 180.344 37.77 180.524 37.362C180.704 36.942 180.956 36.576 181.28 36.264C181.616 35.952 182.018 35.706 182.486 35.526C182.954 35.334 183.476 35.238 184.052 35.238C184.724 35.238 185.3 35.34 185.78 35.544C186.26 35.748 186.65 36.012 186.95 36.336C187.262 36.648 187.484 36.996 187.616 37.38C187.76 37.764 187.832 38.136 187.832 38.496C187.832 38.844 187.778 39.174 187.67 39.486C187.574 39.786 187.436 40.068 187.256 40.332C187.088 40.596 186.89 40.83 186.662 41.034C186.446 41.238 186.218 41.418 185.978 41.574C187.394 42.246 188.114 43.308 188.138 44.76ZM181.658 44.868C181.658 45.084 181.694 45.312 181.766 45.552C181.85 45.78 181.988 45.996 182.18 46.2C182.372 46.392 182.618 46.554 182.918 46.686C183.218 46.818 183.596 46.884 184.052 46.884C184.46 46.884 184.814 46.824 185.114 46.704C185.426 46.584 185.678 46.434 185.87 46.254C186.062 46.062 186.206 45.846 186.302 45.606C186.398 45.366 186.446 45.12 186.446 44.868C186.446 44.484 186.374 44.148 186.23 43.86C186.086 43.572 185.876 43.32 185.6 43.104C185.336 42.888 185.012 42.708 184.628 42.564C184.256 42.408 183.83 42.276 183.35 42.168C182.81 42.468 182.39 42.84 182.09 43.284C181.802 43.728 181.658 44.256 181.658 44.868ZM186.158 38.478C186.158 38.298 186.116 38.1 186.032 37.884C185.96 37.668 185.84 37.47 185.672 37.29C185.504 37.098 185.288 36.942 185.024 36.822C184.76 36.69 184.436 36.624 184.052 36.624C183.668 36.624 183.338 36.684 183.062 36.804C182.798 36.924 182.582 37.08 182.414 37.272C182.246 37.452 182.12 37.656 182.036 37.884C181.964 38.1 181.928 38.316 181.928 38.532C181.928 38.796 181.976 39.06 182.072 39.324C182.168 39.588 182.318 39.834 182.522 40.062C182.726 40.29 182.99 40.494 183.314 40.674C183.65 40.854 184.046 40.998 184.502 41.106C185.006 40.806 185.408 40.458 185.708 40.062C186.008 39.654 186.158 39.126 186.158 38.478ZM198.154 40.512C198.154 42.984 197.536 44.856 196.3 46.128C195.076 47.388 193.252 48.024 190.828 48.036L190.774 46.632C191.53 46.632 192.208 46.56 192.808 46.416C193.42 46.272 193.954 46.044 194.41 45.732C194.866 45.408 195.244 44.994 195.544 44.49C195.856 43.986 196.084 43.368 196.228 42.636C195.916 42.78 195.562 42.9 195.166 42.996C194.77 43.08 194.362 43.122 193.942 43.122C193.234 43.122 192.634 43.02 192.142 42.816C191.65 42.6 191.248 42.318 190.936 41.97C190.624 41.61 190.396 41.202 190.252 40.746C190.12 40.278 190.054 39.792 190.054 39.288C190.054 38.844 190.132 38.382 190.288 37.902C190.444 37.422 190.678 36.984 190.99 36.588C191.314 36.192 191.722 35.868 192.214 35.616C192.706 35.364 193.288 35.238 193.96 35.238C194.644 35.238 195.244 35.358 195.76 35.598C196.288 35.838 196.726 36.186 197.074 36.642C197.434 37.098 197.704 37.656 197.884 38.316C198.064 38.964 198.154 39.696 198.154 40.512ZM194.122 41.754C194.542 41.754 194.938 41.718 195.31 41.646C195.682 41.562 196.042 41.442 196.39 41.286C196.402 41.154 196.408 41.028 196.408 40.908C196.408 40.776 196.408 40.644 196.408 40.512C196.408 39.996 196.372 39.504 196.3 39.036C196.228 38.556 196.096 38.142 195.904 37.794C195.724 37.434 195.478 37.152 195.166 36.948C194.854 36.732 194.458 36.624 193.978 36.624C193.582 36.624 193.246 36.708 192.97 36.876C192.694 37.044 192.466 37.26 192.286 37.524C192.106 37.776 191.974 38.058 191.89 38.37C191.818 38.67 191.782 38.964 191.782 39.252C191.782 40.068 191.974 40.692 192.358 41.124C192.754 41.544 193.342 41.754 194.122 41.754ZM200.197 41.754C200.197 39.666 200.563 38.058 201.295 36.93C202.039 35.802 203.065 35.238 204.373 35.238C205.681 35.238 206.701 35.802 207.433 36.93C208.177 38.058 208.549 39.666 208.549 41.754C208.549 43.842 208.177 45.45 207.433 46.578C206.701 47.706 205.681 48.27 204.373 48.27C203.065 48.27 202.039 47.706 201.295 46.578C200.563 45.45 200.197 43.842 200.197 41.754ZM206.785 41.754C206.785 41.07 206.743 40.422 206.659 39.81C206.587 39.198 206.455 38.664 206.263 38.208C206.083 37.752 205.837 37.392 205.525 37.128C205.213 36.852 204.829 36.714 204.373 36.714C203.917 36.714 203.533 36.852 203.221 37.128C202.909 37.392 202.657 37.752 202.465 38.208C202.285 38.664 202.153 39.198 202.069 39.81C201.997 40.422 201.961 41.07 201.961 41.754C201.961 42.438 201.997 43.086 202.069 43.698C202.153 44.31 202.285 44.844 202.465 45.3C202.657 45.756 202.909 46.122 203.221 46.398C203.533 46.662 203.917 46.794 204.373 46.794C204.829 46.794 205.213 46.662 205.525 46.398C205.837 46.122 206.083 45.756 206.263 45.3C206.455 44.844 206.587 44.31 206.659 43.698C206.743 43.086 206.785 42.438 206.785 41.754Z" fill="white"/>
</g>
<g filter="url(#filter2_d_0_1)">
<path d="M9.912 13.27C9.036 13.27 8.238 13.126 7.518 12.838C6.798 12.55 6.18 12.13 5.664 11.578C5.148 11.026 4.746 10.348 4.458 9.544C4.182 8.728 4.044 7.798 4.044 6.754C4.044 5.71 4.2 4.786 4.512 3.982C4.836 3.166 5.268 2.482 5.808 1.93C6.348 1.378 6.978 0.957999 7.698 0.669999C8.418 0.381999 9.186 0.237999 10.002 0.237999C10.518 0.237999 10.98 0.273999 11.388 0.346C11.808 0.418 12.168 0.502 12.468 0.598C12.78 0.693999 13.032 0.789999 13.224 0.885999C13.416 0.982 13.548 1.054 13.62 1.102L13.116 2.542C13.008 2.47 12.852 2.392 12.648 2.308C12.444 2.224 12.21 2.14 11.946 2.056C11.694 1.972 11.412 1.906 11.1 1.858C10.8 1.798 10.494 1.768 10.182 1.768C9.522 1.768 8.928 1.882 8.4 2.11C7.872 2.338 7.422 2.668 7.05 3.1C6.678 3.532 6.39 4.06 6.186 4.684C5.994 5.296 5.898 5.986 5.898 6.754C5.898 7.498 5.982 8.176 6.15 8.788C6.33 9.4 6.594 9.928 6.942 10.372C7.29 10.804 7.722 11.14 8.238 11.38C8.766 11.62 9.378 11.74 10.074 11.74C10.878 11.74 11.544 11.656 12.072 11.488C12.6 11.32 12.996 11.17 13.26 11.038L13.71 12.478C13.626 12.538 13.476 12.616 13.26 12.712C13.044 12.796 12.774 12.88 12.45 12.964C12.126 13.048 11.748 13.12 11.316 13.18C10.884 13.24 10.416 13.27 9.912 13.27ZM23.6004 8.32C23.6004 9.064 23.4924 9.736 23.2764 10.336C23.0604 10.936 22.7544 11.452 22.3584 11.884C21.9744 12.316 21.5124 12.652 20.9724 12.892C20.4324 13.12 19.8444 13.234 19.2084 13.234C18.5724 13.234 17.9844 13.12 17.4444 12.892C16.9044 12.652 16.4364 12.316 16.0404 11.884C15.6564 11.452 15.3564 10.936 15.1404 10.336C14.9244 9.736 14.8164 9.064 14.8164 8.32C14.8164 7.588 14.9244 6.922 15.1404 6.322C15.3564 5.71 15.6564 5.188 16.0404 4.756C16.4364 4.324 16.9044 3.994 17.4444 3.766C17.9844 3.526 18.5724 3.406 19.2084 3.406C19.8444 3.406 20.4324 3.526 20.9724 3.766C21.5124 3.994 21.9744 4.324 22.3584 4.756C22.7544 5.188 23.0604 5.71 23.2764 6.322C23.4924 6.922 23.6004 7.588 23.6004 8.32ZM21.8544 8.32C21.8544 7.264 21.6144 6.43 21.1344 5.818C20.6664 5.194 20.0244 4.882 19.2084 4.882C18.3924 4.882 17.7444 5.194 17.2644 5.818C16.7964 6.43 16.5624 7.264 16.5624 8.32C16.5624 9.376 16.7964 10.216 17.2644 10.84C17.7444 11.452 18.3924 11.758 19.2084 11.758C20.0244 11.758 20.6664 11.452 21.1344 10.84C21.6144 10.216 21.8544 9.376 21.8544 8.32ZM25.9556 3.91C26.3396 3.814 26.8496 3.712 27.4856 3.604C28.1216 3.496 28.8536 3.442 29.6816 3.442C30.4256 3.442 31.0436 3.55 31.5356 3.766C32.0276 3.97 32.4176 4.264 32.7056 4.648C33.0056 5.02 33.2156 5.47 33.3356 5.998C33.4556 6.526 33.5156 7.108 33.5156 7.744V13H31.8416V8.104C31.8416 7.528 31.7996 7.036 31.7156 6.628C31.6436 6.22 31.5176 5.89 31.3376 5.638C31.1576 5.386 30.9176 5.206 30.6176 5.098C30.3176 4.978 29.9456 4.918 29.5016 4.918C29.3216 4.918 29.1356 4.924 28.9436 4.936C28.7516 4.948 28.5656 4.966 28.3856 4.99C28.2176 5.002 28.0616 5.02 27.9176 5.044C27.7856 5.068 27.6896 5.086 27.6296 5.098V13H25.9556V3.91ZM37.8576 3.64H41.4036V5.044H37.8576V9.364C37.8576 9.832 37.8936 10.222 37.9656 10.534C38.0376 10.834 38.1456 11.074 38.2896 11.254C38.4336 11.422 38.6136 11.542 38.8296 11.614C39.0456 11.686 39.2976 11.722 39.5856 11.722C40.0896 11.722 40.4916 11.668 40.7916 11.56C41.1036 11.44 41.3196 11.356 41.4396 11.308L41.7636 12.694C41.5956 12.778 41.3016 12.88 40.8816 13C40.4616 13.132 39.9816 13.198 39.4416 13.198C38.8056 13.198 38.2776 13.12 37.8576 12.964C37.4496 12.796 37.1196 12.55 36.8676 12.226C36.6156 11.902 36.4356 11.506 36.3276 11.038C36.2316 10.558 36.1836 10.006 36.1836 9.382V1.03L37.8576 0.741999V3.64ZM46.7018 11.794C47.0978 11.794 47.4458 11.788 47.7458 11.776C48.0578 11.752 48.3158 11.716 48.5198 11.668V8.878C48.3998 8.818 48.2018 8.77 47.9258 8.734C47.6618 8.686 47.3378 8.662 46.9538 8.662C46.7018 8.662 46.4318 8.68 46.1438 8.716C45.8678 8.752 45.6098 8.83 45.3698 8.95C45.1418 9.058 44.9498 9.214 44.7938 9.418C44.6378 9.61 44.5598 9.868 44.5598 10.192C44.5598 10.792 44.7518 11.212 45.1358 11.452C45.5198 11.68 46.0418 11.794 46.7018 11.794ZM46.5578 3.406C47.2298 3.406 47.7938 3.496 48.2498 3.676C48.7178 3.844 49.0898 4.09 49.3658 4.414C49.6538 4.726 49.8578 5.104 49.9778 5.548C50.0978 5.98 50.1578 6.46 50.1578 6.988V12.838C50.0138 12.862 49.8098 12.898 49.5458 12.946C49.2938 12.982 49.0058 13.018 48.6818 13.054C48.3578 13.09 48.0038 13.12 47.6198 13.144C47.2478 13.18 46.8758 13.198 46.5038 13.198C45.9758 13.198 45.4898 13.144 45.0458 13.036C44.6018 12.928 44.2178 12.76 43.8938 12.532C43.5698 12.292 43.3178 11.98 43.1378 11.596C42.9578 11.212 42.8678 10.75 42.8678 10.21C42.8678 9.694 42.9698 9.25 43.1738 8.878C43.3898 8.506 43.6778 8.206 44.0378 7.978C44.3978 7.75 44.8178 7.582 45.2978 7.474C45.7778 7.366 46.2818 7.312 46.8098 7.312C46.9778 7.312 47.1518 7.324 47.3318 7.348C47.5118 7.36 47.6798 7.384 47.8358 7.42C48.0038 7.444 48.1478 7.468 48.2678 7.492C48.3878 7.516 48.4718 7.534 48.5198 7.546V7.078C48.5198 6.802 48.4898 6.532 48.4298 6.268C48.3698 5.992 48.2618 5.752 48.1058 5.548C47.9498 5.332 47.7338 5.164 47.4578 5.044C47.1938 4.912 46.8458 4.846 46.4138 4.846C45.8618 4.846 45.3758 4.888 44.9558 4.972C44.5478 5.044 44.2418 5.122 44.0378 5.206L43.8398 3.82C44.0558 3.724 44.4158 3.634 44.9198 3.55C45.4238 3.454 45.9698 3.406 46.5578 3.406ZM57.006 13.216C56.25 13.216 55.584 13.096 55.008 12.856C54.444 12.616 53.964 12.28 53.568 11.848C53.184 11.416 52.896 10.906 52.704 10.318C52.512 9.718 52.416 9.058 52.416 8.338C52.416 7.618 52.518 6.958 52.722 6.358C52.938 5.758 53.238 5.242 53.622 4.81C54.006 4.366 54.474 4.024 55.026 3.784C55.59 3.532 56.214 3.406 56.898 3.406C57.318 3.406 57.738 3.442 58.158 3.514C58.578 3.586 58.98 3.7 59.364 3.856L58.986 5.278C58.734 5.158 58.44 5.062 58.104 4.99C57.78 4.918 57.432 4.882 57.06 4.882C56.124 4.882 55.404 5.176 54.9 5.764C54.408 6.352 54.162 7.21 54.162 8.338C54.162 8.842 54.216 9.304 54.324 9.724C54.444 10.144 54.624 10.504 54.864 10.804C55.116 11.104 55.434 11.338 55.818 11.506C56.202 11.662 56.67 11.74 57.222 11.74C57.666 11.74 58.068 11.698 58.428 11.614C58.788 11.53 59.07 11.44 59.274 11.344L59.508 12.748C59.412 12.808 59.274 12.868 59.094 12.928C58.914 12.976 58.71 13.018 58.482 13.054C58.254 13.102 58.008 13.138 57.744 13.162C57.492 13.198 57.246 13.216 57.006 13.216ZM62.8712 3.64H66.4172V5.044H62.8712V9.364C62.8712 9.832 62.9072 10.222 62.9792 10.534C63.0512 10.834 63.1592 11.074 63.3032 11.254C63.4472 11.422 63.6272 11.542 63.8432 11.614C64.0592 11.686 64.3112 11.722 64.5992 11.722C65.1032 11.722 65.5052 11.668 65.8052 11.56C66.1172 11.44 66.3332 11.356 66.4532 11.308L66.7772 12.694C66.6092 12.778 66.3152 12.88 65.8952 13C65.4752 13.132 64.9952 13.198 64.4552 13.198C63.8192 13.198 63.2912 13.12 62.8712 12.964C62.4632 12.796 62.1332 12.55 61.8812 12.226C61.6292 11.902 61.4492 11.506 61.3412 11.038C61.2452 10.558 61.1972 10.006 61.1972 9.382V1.03L62.8712 0.741999V3.64ZM80.1654 12.73C79.7814 12.826 79.2714 12.928 78.6354 13.036C78.0114 13.144 77.2854 13.198 76.4574 13.198C75.7374 13.198 75.1314 13.096 74.6394 12.892C74.1474 12.676 73.7514 12.376 73.4514 11.992C73.1514 11.608 72.9354 11.158 72.8034 10.642C72.6714 10.114 72.6054 9.532 72.6054 8.896V3.64H74.2794V8.536C74.2794 9.676 74.4594 10.492 74.8194 10.984C75.1794 11.476 75.7854 11.722 76.6374 11.722C76.8174 11.722 77.0034 11.716 77.1954 11.704C77.3874 11.692 77.5674 11.68 77.7354 11.668C77.9034 11.644 78.0534 11.626 78.1854 11.614C78.3294 11.59 78.4314 11.566 78.4914 11.542V3.64H80.1654V12.73ZM85.2274 11.794C85.9114 11.794 86.4154 11.704 86.7394 11.524C87.0754 11.344 87.2434 11.056 87.2434 10.66C87.2434 10.252 87.0814 9.928 86.7574 9.688C86.4334 9.448 85.8994 9.178 85.1554 8.878C84.7954 8.734 84.4474 8.59 84.1114 8.446C83.7874 8.29 83.5054 8.11 83.2654 7.906C83.0254 7.702 82.8334 7.456 82.6894 7.168C82.5454 6.88 82.4734 6.526 82.4734 6.106C82.4734 5.278 82.7794 4.624 83.3914 4.144C84.0034 3.652 84.8374 3.406 85.8934 3.406C86.1574 3.406 86.4214 3.424 86.6854 3.46C86.9494 3.484 87.1954 3.52 87.4234 3.568C87.6514 3.604 87.8494 3.646 88.0174 3.694C88.1974 3.742 88.3354 3.784 88.4314 3.82L88.1254 5.26C87.9454 5.164 87.6634 5.068 87.2794 4.972C86.8954 4.864 86.4334 4.81 85.8934 4.81C85.4254 4.81 85.0174 4.906 84.6694 5.098C84.3214 5.278 84.1474 5.566 84.1474 5.962C84.1474 6.166 84.1834 6.346 84.2554 6.502C84.3394 6.658 84.4594 6.802 84.6154 6.934C84.7834 7.054 84.9874 7.168 85.2274 7.276C85.4674 7.384 85.7554 7.498 86.0914 7.618C86.5354 7.786 86.9314 7.954 87.2794 8.122C87.6274 8.278 87.9214 8.464 88.1614 8.68C88.4134 8.896 88.6054 9.16 88.7374 9.472C88.8694 9.772 88.9354 10.144 88.9354 10.588C88.9354 11.452 88.6114 12.106 87.9634 12.55C87.3274 12.994 86.4154 13.216 85.2274 13.216C84.3994 13.216 83.7514 13.144 83.2834 13C82.8154 12.868 82.4974 12.766 82.3294 12.694L82.6354 11.254C82.8274 11.326 83.1334 11.434 83.5534 11.578C83.9734 11.722 84.5314 11.794 85.2274 11.794ZM93.0266 3.91C93.0266 4.918 92.9906 5.836 92.9186 6.664C92.8466 7.48 92.7566 8.296 92.6486 9.112H91.6046C91.4966 8.296 91.4066 7.48 91.3346 6.664C91.2626 5.836 91.2266 4.918 91.2266 3.91V0.526H93.0266V3.91ZM93.3326 12.028C93.3326 12.352 93.2246 12.634 93.0086 12.874C92.7926 13.114 92.4986 13.234 92.1266 13.234C91.7546 13.234 91.4606 13.114 91.2446 12.874C91.0286 12.634 90.9206 12.352 90.9206 12.028C90.9206 11.704 91.0286 11.422 91.2446 11.182C91.4606 10.942 91.7546 10.822 92.1266 10.822C92.4986 10.822 92.7926 10.942 93.0086 11.182C93.2246 11.422 93.3326 11.704 93.3326 12.028Z" fill="white"/>
</g>
<defs>
<filter id="filter0_d_0_1" x="0.548096" y="64.032" width="188.328" height="24.7219" filterUnits="userSpaceOnUse" color-interpolation-filters="sRGB">
<feFlood flood-opacity="0" result="BackgroundImageFix"/>
<feColorMatrix in="SourceAlpha" type="matrix" values="0 0 0 0 0 0 0 0 0 0 0 0 0 0 0 0 0 0 127 0" result="hardAlpha"/>
<feOffset dy="4"/>
<feGaussianBlur stdDeviation="2"/>
<feComposite in2="hardAlpha" operator="out"/>
<feColorMatrix type="matrix" values="0 0 0 0 0 0 0 0 0 0 0 0 0 0 0 0 0 0 0.25 0"/>
<feBlend mode="normal" in2="BackgroundImageFix" result="effect1_dropShadow_0_1"/>
<feBlend mode="normal" in="SourceGraphic" in2="effect1_dropShadow_0_1" result="shape"/>
</filter>
<filter id="filter1_d_0_1" x="0.548096" y="33.906" width="212" height="25.4241" filterUnits="userSpaceOnUse" color-interpolation-filters="sRGB">
<feFlood flood-opacity="0" result="BackgroundImageFix"/>
<feColorMatrix in="SourceAlpha" type="matrix" values="0 0 0 0 0 0 0 0 0 0 0 0 0 0 0 0 0 0 127 0" result="hardAlpha"/>
<feOffset dy="4"/>
<feGaussianBlur stdDeviation="2"/>
<feComposite in2="hardAlpha" operator="out"/>
<feColorMatrix type="matrix" values="0 0 0 0 0 0 0 0 0 0 0 0 0 0 0 0 0 0 0.25 0"/>
<feBlend mode="normal" in2="BackgroundImageFix" result="effect1_dropShadow_0_1"/>
<feBlend mode="normal" in="SourceGraphic" in2="effect1_dropShadow_0_1" result="shape"/>
</filter>
<filter id="filter2_d_0_1" x="0.0439453" y="0.238037" width="97.2886" height="21.032" filterUnits="userSpaceOnUse" color-interpolation-filters="sRGB">
<feFlood flood-opacity="0" result="BackgroundImageFix"/>
<feColorMatrix in="SourceAlpha" type="matrix" values="0 0 0 0 0 0 0 0 0 0 0 0 0 0 0 0 0 0 127 0" result="hardAlpha"/>
<feOffset dy="4"/>
<feGaussianBlur stdDeviation="2"/>
<feComposite in2="hardAlpha" operator="out"/>
<feColorMatrix type="matrix" values="0 0 0 0 0 0 0 0 0 0 0 0 0 0 0 0 0 0 0.25 0"/>
<feBlend mode="normal" in2="BackgroundImageFix" result="effect1_dropShadow_0_1"/>
<feBlend mode="normal" in="SourceGraphic" in2="effect1_dropShadow_0_1" result="shape"/>
</filter>
</defs>
</svg>

