<svg width="323" height="82" viewBox="0 0 323 82" fill="none" xmlns="http://www.w3.org/2000/svg">
<g filter="url(#filter0_d_0_1)">
<path d="M154.032 29V20.684H159.108V21.68H155.196V24.152H158.676V25.124H155.196V28.004H159.408V29H154.032ZM160.167 24.884H163.131V25.928H160.167V24.884ZM164.401 22.94C164.657 22.876 164.993 22.808 165.409 22.736C165.833 22.664 166.321 22.628 166.873 22.628C167.273 22.628 167.609 22.684 167.881 22.796C168.153 22.9 168.381 23.056 168.565 23.264C168.621 23.224 168.709 23.168 168.829 23.096C168.949 23.024 169.097 22.956 169.273 22.892C169.449 22.82 169.645 22.76 169.861 22.712C170.077 22.656 170.309 22.628 170.557 22.628C171.037 22.628 171.429 22.7 171.733 22.844C172.037 22.98 172.273 23.176 172.441 23.432C172.617 23.688 172.733 23.992 172.789 24.344C172.853 24.696 172.885 25.08 172.885 25.496V29H171.769V25.736C171.769 25.368 171.749 25.052 171.709 24.788C171.677 24.524 171.609 24.304 171.505 24.128C171.409 23.952 171.273 23.824 171.097 23.744C170.929 23.656 170.709 23.612 170.437 23.612C170.061 23.612 169.749 23.664 169.501 23.768C169.261 23.864 169.097 23.952 169.009 24.032C169.073 24.24 169.121 24.468 169.153 24.716C169.185 24.964 169.201 25.224 169.201 25.496V29H168.085V25.736C168.085 25.368 168.065 25.052 168.025 24.788C167.985 24.524 167.913 24.304 167.809 24.128C167.713 23.952 167.577 23.824 167.401 23.744C167.233 23.656 167.017 23.612 166.753 23.612C166.641 23.612 166.521 23.616 166.393 23.624C166.265 23.632 166.141 23.644 166.021 23.66C165.909 23.668 165.805 23.68 165.709 23.696C165.613 23.712 165.549 23.724 165.517 23.732V29H164.401V22.94ZM176.849 28.196C177.113 28.196 177.345 28.192 177.545 28.184C177.753 28.168 177.925 28.144 178.061 28.112V26.252C177.981 26.212 177.849 26.18 177.665 26.156C177.489 26.124 177.273 26.108 177.017 26.108C176.849 26.108 176.669 26.12 176.477 26.144C176.293 26.168 176.121 26.22 175.961 26.3C175.809 26.372 175.681 26.476 175.577 26.612C175.473 26.74 175.421 26.912 175.421 27.128C175.421 27.528 175.549 27.808 175.805 27.968C176.061 28.12 176.409 28.196 176.849 28.196ZM176.753 22.604C177.201 22.604 177.577 22.664 177.881 22.784C178.193 22.896 178.441 23.06 178.625 23.276C178.817 23.484 178.953 23.736 179.033 24.032C179.113 24.32 179.153 24.64 179.153 24.992V28.892C179.057 28.908 178.921 28.932 178.745 28.964C178.577 28.988 178.385 29.012 178.169 29.036C177.953 29.06 177.717 29.08 177.461 29.096C177.213 29.12 176.965 29.132 176.717 29.132C176.365 29.132 176.041 29.096 175.745 29.024C175.449 28.952 175.193 28.84 174.977 28.688C174.761 28.528 174.593 28.32 174.473 28.064C174.353 27.808 174.293 27.5 174.293 27.14C174.293 26.796 174.361 26.5 174.497 26.252C174.641 26.004 174.833 25.804 175.073 25.652C175.313 25.5 175.593 25.388 175.913 25.316C176.233 25.244 176.569 25.208 176.921 25.208C177.033 25.208 177.149 25.216 177.269 25.232C177.389 25.24 177.501 25.256 177.605 25.28C177.717 25.296 177.813 25.312 177.893 25.328C177.973 25.344 178.029 25.356 178.061 25.364V25.052C178.061 24.868 178.041 24.688 178.001 24.512C177.961 24.328 177.889 24.168 177.785 24.032C177.681 23.888 177.537 23.776 177.353 23.696C177.177 23.608 176.945 23.564 176.657 23.564C176.289 23.564 175.965 23.592 175.685 23.648C175.413 23.696 175.209 23.748 175.073 23.804L174.941 22.88C175.085 22.816 175.325 22.756 175.661 22.7C175.997 22.636 176.361 22.604 176.753 22.604ZM182.123 29H181.007V22.76H182.123V29ZM181.559 21.632C181.359 21.632 181.187 21.568 181.043 21.44C180.907 21.304 180.839 21.124 180.839 20.9C180.839 20.676 180.907 20.5 181.043 20.372C181.187 20.236 181.359 20.168 181.559 20.168C181.759 20.168 181.927 20.236 182.063 20.372C182.207 20.5 182.279 20.676 182.279 20.9C182.279 21.124 182.207 21.304 182.063 21.44C181.927 21.568 181.759 21.632 181.559 21.632ZM185.914 29.12C185.226 29.104 184.738 28.956 184.45 28.676C184.162 28.396 184.018 27.96 184.018 27.368V19.88L185.134 19.688V27.188C185.134 27.372 185.15 27.524 185.182 27.644C185.214 27.764 185.266 27.86 185.338 27.932C185.41 28.004 185.506 28.06 185.626 28.1C185.746 28.132 185.894 28.16 186.07 28.184L185.914 29.12ZM188.643 28.352C188.643 28.568 188.571 28.756 188.427 28.916C188.283 29.076 188.087 29.156 187.839 29.156C187.591 29.156 187.395 29.076 187.251 28.916C187.107 28.756 187.035 28.568 187.035 28.352C187.035 28.136 187.107 27.948 187.251 27.788C187.395 27.628 187.591 27.548 187.839 27.548C188.087 27.548 188.283 27.628 188.427 27.788C188.571 27.948 188.643 28.136 188.643 28.352ZM188.643 23.564C188.643 23.78 188.571 23.968 188.427 24.128C188.283 24.288 188.087 24.368 187.839 24.368C187.591 24.368 187.395 24.288 187.251 24.128C187.107 23.968 187.035 23.78 187.035 23.564C187.035 23.348 187.107 23.16 187.251 23C187.395 22.84 187.591 22.76 187.839 22.76C188.087 22.76 188.283 22.84 188.427 23C188.571 23.16 188.643 23.348 188.643 23.564Z" fill="white"/>
<path d="M200.076 23.1229C200.212 23.0349 200.416 22.9429 200.688 22.8469C200.968 22.7509 201.288 22.7029 201.648 22.7029C202.096 22.7029 202.492 22.7829 202.836 22.9429C203.188 23.1029 203.484 23.3269 203.724 23.6149C203.964 23.9029 204.144 24.2469 204.264 24.6469C204.392 25.0469 204.456 25.4869 204.456 25.9669C204.456 26.4709 204.38 26.9269 204.228 27.3349C204.084 27.7349 203.876 28.0749 203.604 28.3549C203.332 28.6349 203.004 28.8509 202.62 29.0029C202.236 29.1549 201.804 29.2309 201.324 29.2309C200.804 29.2309 200.344 29.1949 199.944 29.1229C199.544 29.0509 199.216 28.9789 198.96 28.9069V19.9669L200.076 19.7749V23.1229ZM200.076 28.1149C200.188 28.1469 200.344 28.1789 200.544 28.2109C200.752 28.2349 201.008 28.2469 201.312 28.2469C201.912 28.2469 202.392 28.0509 202.752 27.6589C203.112 27.2589 203.292 26.6949 203.292 25.9669C203.292 25.6469 203.26 25.3469 203.196 25.0669C203.132 24.7869 203.028 24.5469 202.884 24.3469C202.74 24.1389 202.552 23.9789 202.32 23.8669C202.096 23.7469 201.824 23.6869 201.504 23.6869C201.2 23.6869 200.92 23.7389 200.664 23.8429C200.408 23.9469 200.212 24.0549 200.076 24.1669V28.1149ZM211.534 25.9669C211.534 26.4629 211.462 26.9109 211.318 27.3109C211.174 27.7109 210.97 28.0549 210.706 28.3429C210.45 28.6309 210.142 28.8549 209.782 29.0149C209.422 29.1669 209.03 29.2429 208.606 29.2429C208.182 29.2429 207.79 29.1669 207.43 29.0149C207.07 28.8549 206.758 28.6309 206.494 28.3429C206.238 28.0549 206.038 27.7109 205.894 27.3109C205.75 26.9109 205.678 26.4629 205.678 25.9669C205.678 25.4789 205.75 25.0349 205.894 24.6349C206.038 24.2269 206.238 23.8789 206.494 23.5909C206.758 23.3029 207.07 23.0829 207.43 22.9309C207.79 22.7709 208.182 22.6909 208.606 22.6909C209.03 22.6909 209.422 22.7709 209.782 22.9309C210.142 23.0829 210.45 23.3029 210.706 23.5909C210.97 23.8789 211.174 24.2269 211.318 24.6349C211.462 25.0349 211.534 25.4789 211.534 25.9669ZM210.37 25.9669C210.37 25.2629 210.21 24.7069 209.89 24.2989C209.578 23.8829 209.15 23.6749 208.606 23.6749C208.062 23.6749 207.63 23.8829 207.31 24.2989C206.998 24.7069 206.842 25.2629 206.842 25.9669C206.842 26.6709 206.998 27.2309 207.31 27.6469C207.63 28.0549 208.062 28.2589 208.606 28.2589C209.15 28.2589 209.578 28.0549 209.89 27.6469C210.21 27.2309 210.37 26.6709 210.37 25.9669ZM213.105 23.0269C213.361 22.9629 213.701 22.8949 214.125 22.8229C214.549 22.7509 215.037 22.7149 215.589 22.7149C216.085 22.7149 216.497 22.7869 216.825 22.9309C217.153 23.0669 217.413 23.2629 217.605 23.5189C217.805 23.7669 217.945 24.0669 218.025 24.4189C218.105 24.7709 218.145 25.1589 218.145 25.5829V29.0869H217.029V25.8229C217.029 25.4389 217.001 25.1109 216.945 24.8389C216.897 24.5669 216.813 24.3469 216.693 24.1789C216.573 24.0109 216.413 23.8909 216.213 23.8189C216.013 23.7389 215.765 23.6989 215.469 23.6989C215.349 23.6989 215.225 23.7029 215.097 23.7109C214.969 23.7189 214.845 23.7309 214.725 23.7469C214.613 23.7549 214.509 23.7669 214.413 23.7829C214.325 23.7989 214.261 23.8109 214.221 23.8189V29.0869H213.105V23.0269ZM224.135 23.6869C223.967 23.8709 223.743 24.1309 223.463 24.4669C223.191 24.8029 222.895 25.1749 222.575 25.5829C222.263 25.9909 221.947 26.4189 221.627 26.8669C221.315 27.3149 221.039 27.7429 220.799 28.1509H224.231V29.0869H219.467V28.3429C219.659 27.9909 219.895 27.6029 220.175 27.1789C220.455 26.7549 220.747 26.3349 221.051 25.9189C221.363 25.4949 221.663 25.0989 221.951 24.7309C222.247 24.3549 222.503 24.0389 222.719 23.7829H219.635V22.8469H224.135V23.6869ZM232.964 28.5709C232.708 28.5709 232.496 28.5349 232.328 28.4629C232.16 28.3909 232.02 28.2949 231.908 28.1749C231.732 28.2709 231.52 28.3549 231.272 28.4269C231.024 28.4909 230.776 28.5229 230.528 28.5229C230.144 28.5229 229.792 28.4629 229.472 28.3429C229.16 28.2229 228.888 28.0469 228.656 27.8149C228.424 27.5749 228.244 27.2829 228.116 26.9389C227.988 26.5949 227.924 26.1949 227.924 25.7389C227.924 25.3549 227.984 24.9949 228.104 24.6589C228.224 24.3149 228.4 24.0189 228.632 23.7709C228.872 23.5149 229.16 23.3149 229.496 23.1709C229.84 23.0269 230.228 22.9549 230.66 22.9549C231.068 22.9549 231.44 22.9869 231.776 23.0509C232.12 23.1149 232.384 23.1789 232.568 23.2429V26.9149C232.568 27.1709 232.612 27.3509 232.7 27.4549C232.788 27.5589 232.904 27.6109 233.048 27.6109C233.256 27.6109 233.436 27.5389 233.588 27.3949C233.748 27.2509 233.876 27.0629 233.972 26.8309C234.076 26.5989 234.152 26.3389 234.2 26.0509C234.248 25.7549 234.272 25.4549 234.272 25.1509C234.272 24.6469 234.184 24.1749 234.008 23.7349C233.832 23.2869 233.58 22.8949 233.252 22.5589C232.924 22.2229 232.524 21.9589 232.052 21.7669C231.588 21.5749 231.064 21.4789 230.48 21.4789C229.896 21.4789 229.36 21.5789 228.872 21.7789C228.384 21.9709 227.964 22.2509 227.612 22.6189C227.26 22.9789 226.984 23.4229 226.784 23.9509C226.592 24.4789 226.496 25.0789 226.496 25.7509C226.496 26.4549 226.6 27.0749 226.808 27.6109C227.016 28.1389 227.304 28.5829 227.672 28.9429C228.048 29.2949 228.488 29.5589 228.992 29.7349C229.504 29.9189 230.064 30.0109 230.672 30.0109C231.144 30.0109 231.532 29.9829 231.836 29.9269C232.148 29.8709 232.348 29.8269 232.436 29.7949L232.556 30.6829C232.42 30.7309 232.172 30.7829 231.812 30.8389C231.46 30.8949 231.08 30.9229 230.672 30.9229C229.96 30.9229 229.288 30.8189 228.656 30.6109C228.024 30.4109 227.472 30.0989 227 29.6749C226.528 29.2589 226.152 28.7269 225.872 28.0789C225.6 27.4229 225.464 26.6469 225.464 25.7509C225.464 24.8869 225.6 24.1309 225.872 23.4829C226.144 22.8349 226.508 22.2989 226.964 21.8749C227.428 21.4429 227.96 21.1189 228.56 20.9029C229.168 20.6869 229.808 20.5789 230.48 20.5789C231.136 20.5789 231.756 20.6869 232.34 20.9029C232.924 21.1109 233.436 21.4189 233.876 21.8269C234.316 22.2269 234.664 22.7149 234.92 23.2909C235.176 23.8589 235.304 24.5029 235.304 25.2229C235.304 25.7669 235.24 26.2469 235.112 26.6629C234.992 27.0789 234.828 27.4309 234.62 27.7189C234.412 27.9989 234.164 28.2109 233.876 28.3549C233.588 28.4989 233.284 28.5709 232.964 28.5709ZM230.564 27.5989C230.732 27.5989 230.9 27.5829 231.068 27.5509C231.244 27.5109 231.4 27.4549 231.536 27.3829C231.512 27.2789 231.496 27.1749 231.488 27.0709C231.48 26.9669 231.476 26.8669 231.476 26.7709V23.9509C231.428 23.9349 231.336 23.9189 231.2 23.9029C231.064 23.8869 230.912 23.8789 230.744 23.8789C230.176 23.8789 229.752 24.0549 229.472 24.4069C229.192 24.7589 229.052 25.2029 229.052 25.7389C229.052 26.3069 229.188 26.7589 229.46 27.0949C229.732 27.4309 230.1 27.5989 230.564 27.5989ZM239.158 28.2829C239.422 28.2829 239.654 28.2789 239.854 28.2709C240.062 28.2549 240.234 28.2309 240.37 28.1989V26.3389C240.29 26.2989 240.158 26.2669 239.974 26.2429C239.798 26.2109 239.582 26.1949 239.326 26.1949C239.158 26.1949 238.978 26.2069 238.786 26.2309C238.602 26.2549 238.43 26.3069 238.27 26.3869C238.118 26.4589 237.99 26.5629 237.886 26.6989C237.782 26.8269 237.73 26.9989 237.73 27.2149C237.73 27.6149 237.858 27.8949 238.114 28.0549C238.37 28.2069 238.718 28.2829 239.158 28.2829ZM239.062 22.6909C239.51 22.6909 239.886 22.7509 240.19 22.8709C240.502 22.9829 240.75 23.1469 240.934 23.3629C241.126 23.5709 241.262 23.8229 241.342 24.1189C241.422 24.4069 241.462 24.7269 241.462 25.0789V28.9789C241.366 28.9949 241.23 29.0189 241.054 29.0509C240.886 29.0749 240.694 29.0989 240.478 29.1229C240.262 29.1469 240.026 29.1669 239.77 29.1829C239.522 29.2069 239.274 29.2189 239.026 29.2189C238.674 29.2189 238.35 29.1829 238.054 29.1109C237.758 29.0389 237.502 28.9269 237.286 28.7749C237.07 28.6149 236.902 28.4069 236.782 28.1509C236.662 27.8949 236.602 27.5869 236.602 27.2269C236.602 26.8829 236.67 26.5869 236.806 26.3389C236.95 26.0909 237.142 25.8909 237.382 25.7389C237.622 25.5869 237.902 25.4749 238.222 25.4029C238.542 25.3309 238.878 25.2949 239.23 25.2949C239.342 25.2949 239.458 25.3029 239.578 25.3189C239.698 25.3269 239.81 25.3429 239.914 25.3669C240.026 25.3829 240.122 25.3989 240.202 25.4149C240.282 25.4309 240.338 25.4429 240.37 25.4509V25.1389C240.37 24.9549 240.35 24.7749 240.31 24.5989C240.27 24.4149 240.198 24.2549 240.094 24.1189C239.99 23.9749 239.846 23.8629 239.662 23.7829C239.486 23.6949 239.254 23.6509 238.966 23.6509C238.598 23.6509 238.274 23.6789 237.994 23.7349C237.722 23.7829 237.518 23.8349 237.382 23.8909L237.25 22.9669C237.394 22.9029 237.634 22.8429 237.97 22.7869C238.306 22.7229 238.67 22.6909 239.062 22.6909ZM244.431 29.0869H243.315V22.8469H244.431V29.0869ZM243.867 21.7189C243.667 21.7189 243.495 21.6549 243.351 21.5269C243.215 21.3909 243.147 21.2109 243.147 20.9869C243.147 20.7629 243.215 20.5869 243.351 20.4589C243.495 20.3229 243.667 20.2549 243.867 20.2549C244.067 20.2549 244.235 20.3229 244.371 20.4589C244.515 20.5869 244.587 20.7629 244.587 20.9869C244.587 21.2109 244.515 21.3909 244.371 21.5269C244.235 21.6549 244.067 21.7189 243.867 21.7189ZM247.671 28.4389C247.671 28.6549 247.599 28.8429 247.455 29.0029C247.311 29.1629 247.115 29.2429 246.867 29.2429C246.619 29.2429 246.423 29.1629 246.279 29.0029C246.135 28.8429 246.063 28.6549 246.063 28.4389C246.063 28.2229 246.135 28.0349 246.279 27.8749C246.423 27.7149 246.619 27.6349 246.867 27.6349C247.115 27.6349 247.311 27.7149 247.455 27.8749C247.599 28.0349 247.671 28.2229 247.671 28.4389ZM252.016 29.2309C251.512 29.2309 251.068 29.1509 250.684 28.9909C250.308 28.8309 249.988 28.6069 249.724 28.3189C249.468 28.0309 249.276 27.6909 249.148 27.2989C249.02 26.8989 248.956 26.4589 248.956 25.9789C248.956 25.4989 249.024 25.0589 249.16 24.6589C249.304 24.2589 249.504 23.9149 249.76 23.6269C250.016 23.3309 250.328 23.1029 250.696 22.9429C251.072 22.7749 251.488 22.6909 251.944 22.6909C252.224 22.6909 252.504 22.7149 252.784 22.7629C253.064 22.8109 253.332 22.8869 253.588 22.9909L253.336 23.9389C253.168 23.8589 252.972 23.7949 252.748 23.7469C252.532 23.6989 252.3 23.6749 252.052 23.6749C251.428 23.6749 250.948 23.8709 250.612 24.2629C250.284 24.6549 250.12 25.2269 250.12 25.9789C250.12 26.3149 250.156 26.6229 250.228 26.9029C250.308 27.1829 250.428 27.4229 250.588 27.6229C250.756 27.8229 250.968 27.9789 251.224 28.0909C251.48 28.1949 251.792 28.2469 252.16 28.2469C252.456 28.2469 252.724 28.2189 252.964 28.1629C253.204 28.1069 253.392 28.0469 253.528 27.9829L253.684 28.9189C253.62 28.9589 253.528 28.9989 253.408 29.0389C253.288 29.0709 253.152 29.0989 253 29.1229C252.848 29.1549 252.684 29.1789 252.508 29.1949C252.34 29.2189 252.176 29.2309 252.016 29.2309ZM260.238 25.9669C260.238 26.4629 260.166 26.9109 260.022 27.3109C259.878 27.7109 259.674 28.0549 259.41 28.3429C259.154 28.6309 258.846 28.8549 258.486 29.0149C258.126 29.1669 257.734 29.2429 257.31 29.2429C256.886 29.2429 256.494 29.1669 256.134 29.0149C255.774 28.8549 255.462 28.6309 255.198 28.3429C254.942 28.0549 254.742 27.7109 254.598 27.3109C254.454 26.9109 254.382 26.4629 254.382 25.9669C254.382 25.4789 254.454 25.0349 254.598 24.6349C254.742 24.2269 254.942 23.8789 255.198 23.5909C255.462 23.3029 255.774 23.0829 256.134 22.9309C256.494 22.7709 256.886 22.6909 257.31 22.6909C257.734 22.6909 258.126 22.7709 258.486 22.9309C258.846 23.0829 259.154 23.3029 259.41 23.5909C259.674 23.8789 259.878 24.2269 260.022 24.6349C260.166 25.0349 260.238 25.4789 260.238 25.9669ZM259.074 25.9669C259.074 25.2629 258.914 24.7069 258.594 24.2989C258.282 23.8829 257.854 23.6749 257.31 23.6749C256.766 23.6749 256.334 23.8829 256.014 24.2989C255.702 24.7069 255.546 25.2629 255.546 25.9669C255.546 26.6709 255.702 27.2309 256.014 27.6469C256.334 28.0549 256.766 28.2589 257.31 28.2589C257.854 28.2589 258.282 28.0549 258.594 27.6469C258.914 27.2309 259.074 26.6709 259.074 25.9669ZM261.808 23.0269C262.064 22.9629 262.4 22.8949 262.816 22.8229C263.24 22.7509 263.728 22.7149 264.28 22.7149C264.68 22.7149 265.016 22.7709 265.288 22.8829C265.56 22.9869 265.788 23.1429 265.972 23.3509C266.028 23.3109 266.116 23.2549 266.236 23.1829C266.356 23.1109 266.504 23.0429 266.68 22.9789C266.856 22.9069 267.052 22.8469 267.268 22.7989C267.484 22.7429 267.716 22.7149 267.964 22.7149C268.444 22.7149 268.836 22.7869 269.14 22.9309C269.444 23.0669 269.68 23.2629 269.848 23.5189C270.024 23.7749 270.14 24.0789 270.196 24.4309C270.26 24.7829 270.292 25.1669 270.292 25.5829V29.0869H269.176V25.8229C269.176 25.4549 269.156 25.1389 269.116 24.8749C269.084 24.6109 269.016 24.3909 268.912 24.2149C268.816 24.0389 268.68 23.9109 268.504 23.8309C268.336 23.7429 268.116 23.6989 267.844 23.6989C267.468 23.6989 267.156 23.7509 266.908 23.8549C266.668 23.9509 266.504 24.0389 266.416 24.1189C266.48 24.3269 266.528 24.5549 266.56 24.8029C266.592 25.0509 266.608 25.3109 266.608 25.5829V29.0869H265.492V25.8229C265.492 25.4549 265.472 25.1389 265.432 24.8749C265.392 24.6109 265.32 24.3909 265.216 24.2149C265.12 24.0389 264.984 23.9109 264.808 23.8309C264.64 23.7429 264.424 23.6989 264.16 23.6989C264.048 23.6989 263.928 23.7029 263.8 23.7109C263.672 23.7189 263.548 23.7309 263.428 23.7469C263.316 23.7549 263.212 23.7669 263.116 23.7829C263.02 23.7989 262.956 23.8109 262.924 23.8189V29.0869H261.808V23.0269Z" fill="white"/>
</g>
<g filter="url(#filter1_d_0_1)">
<path d="M6.24 20.6C7.408 20.6 8.304 20.824 8.928 21.272C9.56 21.712 9.876 22.372 9.876 23.252C9.876 23.732 9.788 24.144 9.612 24.488C9.444 24.824 9.196 25.1 8.868 25.316C8.548 25.524 8.156 25.676 7.692 25.772C7.228 25.868 6.704 25.916 6.12 25.916H5.196V29H4.032V20.804C4.36 20.724 4.724 20.672 5.124 20.648C5.532 20.616 5.904 20.6 6.24 20.6ZM6.336 21.62C5.84 21.62 5.46 21.632 5.196 21.656V24.92H6.072C6.472 24.92 6.832 24.896 7.152 24.848C7.472 24.792 7.74 24.704 7.956 24.584C8.18 24.456 8.352 24.284 8.472 24.068C8.592 23.852 8.652 23.576 8.652 23.24C8.652 22.92 8.588 22.656 8.46 22.448C8.34 22.24 8.172 22.076 7.956 21.956C7.748 21.828 7.504 21.74 7.224 21.692C6.944 21.644 6.648 21.62 6.336 21.62ZM11.2608 29V19.88L12.3768 19.688V22.88C12.5848 22.8 12.8048 22.74 13.0368 22.7C13.2768 22.652 13.5128 22.628 13.7448 22.628C14.2408 22.628 14.6528 22.7 14.9808 22.844C15.3088 22.98 15.5688 23.176 15.7608 23.432C15.9608 23.68 16.1008 23.98 16.1808 24.332C16.2608 24.684 16.3008 25.072 16.3008 25.496V29H15.1848V25.736C15.1848 25.352 15.1568 25.024 15.1008 24.752C15.0528 24.48 14.9688 24.26 14.8488 24.092C14.7288 23.924 14.5688 23.804 14.3688 23.732C14.1688 23.652 13.9208 23.612 13.6248 23.612C13.5048 23.612 13.3808 23.62 13.2528 23.636C13.1248 23.652 13.0008 23.672 12.8808 23.696C12.7688 23.712 12.6648 23.732 12.5688 23.756C12.4808 23.78 12.4168 23.8 12.3768 23.816V29H11.2608ZM23.6243 25.88C23.6243 26.376 23.5523 26.824 23.4083 27.224C23.2643 27.624 23.0603 27.968 22.7963 28.256C22.5403 28.544 22.2323 28.768 21.8723 28.928C21.5123 29.08 21.1203 29.156 20.6963 29.156C20.2723 29.156 19.8803 29.08 19.5203 28.928C19.1603 28.768 18.8483 28.544 18.5843 28.256C18.3283 27.968 18.1283 27.624 17.9843 27.224C17.8403 26.824 17.7683 26.376 17.7683 25.88C17.7683 25.392 17.8403 24.948 17.9843 24.548C18.1283 24.14 18.3283 23.792 18.5843 23.504C18.8483 23.216 19.1603 22.996 19.5203 22.844C19.8803 22.684 20.2723 22.604 20.6963 22.604C21.1203 22.604 21.5123 22.684 21.8723 22.844C22.2323 22.996 22.5403 23.216 22.7963 23.504C23.0603 23.792 23.2643 24.14 23.4083 24.548C23.5523 24.948 23.6243 25.392 23.6243 25.88ZM22.4603 25.88C22.4603 25.176 22.3003 24.62 21.9803 24.212C21.6683 23.796 21.2403 23.588 20.6963 23.588C20.1523 23.588 19.7203 23.796 19.4003 24.212C19.0883 24.62 18.9323 25.176 18.9323 25.88C18.9323 26.584 19.0883 27.144 19.4003 27.56C19.7203 27.968 20.1523 28.172 20.6963 28.172C21.2403 28.172 21.6683 27.968 21.9803 27.56C22.3003 27.144 22.4603 26.584 22.4603 25.88ZM25.1944 22.94C25.4504 22.876 25.7904 22.808 26.2144 22.736C26.6384 22.664 27.1264 22.628 27.6784 22.628C28.1744 22.628 28.5864 22.7 28.9144 22.844C29.2424 22.98 29.5024 23.176 29.6944 23.432C29.8944 23.68 30.0344 23.98 30.1144 24.332C30.1944 24.684 30.2344 25.072 30.2344 25.496V29H29.1184V25.736C29.1184 25.352 29.0904 25.024 29.0344 24.752C28.9864 24.48 28.9024 24.26 28.7824 24.092C28.6624 23.924 28.5024 23.804 28.3024 23.732C28.1024 23.652 27.8544 23.612 27.5584 23.612C27.4384 23.612 27.3144 23.616 27.1864 23.624C27.0584 23.632 26.9344 23.644 26.8144 23.66C26.7024 23.668 26.5984 23.68 26.5024 23.696C26.4144 23.712 26.3504 23.724 26.3104 23.732V29H25.1944V22.94ZM31.737 25.892C31.737 25.34 31.817 24.86 31.977 24.452C32.137 24.036 32.349 23.692 32.613 23.42C32.877 23.148 33.181 22.944 33.525 22.808C33.869 22.672 34.221 22.604 34.581 22.604C35.421 22.604 36.065 22.868 36.513 23.396C36.961 23.916 37.185 24.712 37.185 25.784C37.185 25.832 37.185 25.896 37.185 25.976C37.185 26.048 37.181 26.116 37.173 26.18H32.901C32.949 26.828 33.137 27.32 33.465 27.656C33.793 27.992 34.305 28.16 35.001 28.16C35.393 28.16 35.721 28.128 35.985 28.064C36.257 27.992 36.461 27.924 36.597 27.86L36.753 28.796C36.617 28.868 36.377 28.944 36.033 29.024C35.697 29.104 35.313 29.144 34.881 29.144C34.337 29.144 33.865 29.064 33.465 28.904C33.073 28.736 32.749 28.508 32.493 28.22C32.237 27.932 32.045 27.592 31.917 27.2C31.797 26.8 31.737 26.364 31.737 25.892ZM36.021 25.28C36.029 24.776 35.901 24.364 35.637 24.044C35.381 23.716 35.025 23.552 34.569 23.552C34.313 23.552 34.085 23.604 33.885 23.708C33.693 23.804 33.529 23.932 33.393 24.092C33.257 24.252 33.149 24.436 33.069 24.644C32.997 24.852 32.949 25.064 32.925 25.28H36.021ZM40.1081 28.352C40.1081 28.568 40.0361 28.756 39.8921 28.916C39.7481 29.076 39.5521 29.156 39.3041 29.156C39.0561 29.156 38.8601 29.076 38.7161 28.916C38.5721 28.756 38.5001 28.568 38.5001 28.352C38.5001 28.136 38.5721 27.948 38.7161 27.788C38.8601 27.628 39.0561 27.548 39.3041 27.548C39.5521 27.548 39.7481 27.628 39.8921 27.788C40.0361 27.948 40.1081 28.136 40.1081 28.352ZM40.1081 23.564C40.1081 23.78 40.0361 23.968 39.8921 24.128C39.7481 24.288 39.5521 24.368 39.3041 24.368C39.0561 24.368 38.8601 24.288 38.7161 24.128C38.5721 23.968 38.5001 23.78 38.5001 23.564C38.5001 23.348 38.5721 23.16 38.7161 23C38.8601 22.84 39.0561 22.76 39.3041 22.76C39.5521 22.76 39.7481 22.84 39.8921 23C40.0361 23.16 40.1081 23.348 40.1081 23.564Z" fill="white"/>
<path d="M51.3757 25.412C51.3757 26.436 51.5237 27.384 51.8197 28.256C52.1157 29.128 52.5517 29.936 53.1277 30.68L52.3357 31.22C51.7117 30.46 51.2077 29.588 50.8237 28.604C50.4477 27.612 50.2597 26.548 50.2597 25.412C50.2597 24.276 50.4477 23.216 50.8237 22.232C51.2077 21.24 51.7117 20.364 52.3357 19.604L53.1277 20.144C52.5517 20.888 52.1157 21.696 51.8197 22.568C51.5237 23.44 51.3757 24.388 51.3757 25.412ZM54.3304 22.4C54.7864 22.224 55.2304 22 55.6624 21.728C56.0944 21.448 56.4904 21.1 56.8504 20.684H57.6424V29H56.5264V22.232C56.4304 22.32 56.3104 22.412 56.1664 22.508C56.0304 22.604 55.8784 22.696 55.7104 22.784C55.5504 22.872 55.3784 22.956 55.1944 23.036C55.0184 23.116 54.8464 23.184 54.6784 23.24L54.3304 22.4ZM65.5918 22.808C65.5918 23.096 65.5318 23.376 65.4118 23.648C65.2998 23.912 65.1478 24.176 64.9558 24.44C64.7638 24.696 64.5478 24.952 64.3078 25.208C64.0678 25.456 63.8278 25.7 63.5878 25.94C63.4518 26.076 63.2918 26.236 63.1078 26.42C62.9318 26.604 62.7638 26.796 62.6038 26.996C62.4438 27.196 62.3078 27.388 62.1958 27.572C62.0918 27.756 62.0398 27.916 62.0398 28.052H65.8678V29H60.8278C60.8198 28.952 60.8158 28.904 60.8158 28.856C60.8158 28.808 60.8158 28.764 60.8158 28.724C60.8158 28.348 60.8758 28 60.9958 27.68C61.1238 27.352 61.2878 27.044 61.4878 26.756C61.6878 26.468 61.9118 26.196 62.1598 25.94C62.4078 25.684 62.6518 25.436 62.8918 25.196C63.0918 25.004 63.2798 24.816 63.4558 24.632C63.6398 24.44 63.7998 24.252 63.9358 24.068C64.0798 23.876 64.1918 23.68 64.2718 23.48C64.3598 23.28 64.4038 23.068 64.4038 22.844C64.4038 22.604 64.3638 22.4 64.2838 22.232C64.2118 22.064 64.1118 21.924 63.9838 21.812C63.8558 21.7 63.7038 21.62 63.5278 21.572C63.3598 21.516 63.1798 21.488 62.9878 21.488C62.7558 21.488 62.5438 21.52 62.3518 21.584C62.1598 21.648 61.9878 21.724 61.8358 21.812C61.6838 21.892 61.5558 21.98 61.4518 22.076C61.3478 22.164 61.2678 22.232 61.2118 22.28L60.6598 21.488C60.7318 21.408 60.8398 21.312 60.9838 21.2C61.1278 21.08 61.2998 20.968 61.4998 20.864C61.6998 20.76 61.9238 20.672 62.1718 20.6C62.4198 20.528 62.6878 20.492 62.9758 20.492C63.8478 20.492 64.4998 20.696 64.9318 21.104C65.3718 21.504 65.5918 22.072 65.5918 22.808ZM69.4732 28.184C70.1852 28.184 70.6932 28.044 70.9972 27.764C71.3092 27.484 71.4652 27.108 71.4652 26.636C71.4652 26.332 71.4012 26.076 71.2732 25.868C71.1452 25.66 70.9772 25.496 70.7692 25.376C70.5612 25.248 70.3172 25.16 70.0372 25.112C69.7652 25.056 69.4852 25.028 69.1972 25.028H68.9092V24.116H69.3052C69.5052 24.116 69.7092 24.096 69.9172 24.056C70.1332 24.016 70.3292 23.944 70.5052 23.84C70.6812 23.736 70.8252 23.596 70.9372 23.42C71.0492 23.236 71.1052 23.008 71.1052 22.736C71.1052 22.512 71.0652 22.32 70.9852 22.16C70.9052 22 70.7972 21.868 70.6612 21.764C70.5332 21.66 70.3812 21.588 70.2052 21.548C70.0372 21.5 69.8572 21.476 69.6652 21.476C69.2812 21.476 68.9532 21.532 68.6812 21.644C68.4172 21.756 68.1932 21.872 68.0092 21.992L67.5772 21.14C67.6732 21.076 67.7932 21.008 67.9372 20.936C68.0892 20.856 68.2572 20.784 68.4412 20.72C68.6252 20.656 68.8212 20.604 69.0292 20.564C69.2452 20.516 69.4692 20.492 69.7012 20.492C70.1412 20.492 70.5212 20.548 70.8412 20.66C71.1612 20.764 71.4252 20.916 71.6332 21.116C71.8412 21.308 71.9972 21.54 72.1012 21.812C72.2052 22.076 72.2572 22.364 72.2572 22.676C72.2572 23.108 72.1332 23.48 71.8852 23.792C71.6372 24.096 71.3372 24.328 70.9852 24.488C71.2012 24.552 71.4092 24.644 71.6092 24.764C71.8092 24.884 71.9812 25.036 72.1252 25.22C72.2772 25.404 72.3972 25.616 72.4852 25.856C72.5812 26.096 72.6292 26.364 72.6292 26.66C72.6292 27.02 72.5652 27.356 72.4372 27.668C72.3172 27.972 72.1252 28.236 71.8612 28.46C71.6052 28.684 71.2812 28.86 70.8892 28.988C70.4972 29.116 70.0332 29.18 69.4972 29.18C69.2892 29.18 69.0732 29.164 68.8492 29.132C68.6332 29.1 68.4292 29.06 68.2372 29.012C68.0452 28.964 67.8772 28.916 67.7332 28.868C67.5892 28.82 67.4852 28.78 67.4212 28.748L67.6372 27.776C67.7732 27.84 67.9972 27.924 68.3092 28.028C68.6292 28.132 69.0172 28.184 69.4732 28.184ZM75.3707 25.412C75.3707 24.388 75.2227 23.44 74.9267 22.568C74.6307 21.696 74.1947 20.888 73.6187 20.144L74.4107 19.604C75.0347 20.364 75.5347 21.24 75.9107 22.232C76.2947 23.216 76.4867 24.276 76.4867 25.412C76.4867 26.548 76.2947 27.612 75.9107 28.604C75.5347 29.588 75.0347 30.46 74.4107 31.22L73.6187 30.68C74.1947 29.936 74.6307 29.128 74.9267 28.256C75.2227 27.384 75.3707 26.436 75.3707 25.412ZM80.6826 26.12C80.8346 25.768 81.0426 25.36 81.3066 24.896C81.5706 24.424 81.8666 23.94 82.1946 23.444C82.5306 22.948 82.8866 22.46 83.2626 21.98C83.6466 21.5 84.0306 21.068 84.4146 20.684H85.4826V25.964H86.4666V26.876H85.4826V29H84.4026V26.876H80.6826V26.12ZM84.4026 22.004C84.1626 22.26 83.9186 22.548 83.6706 22.868C83.4306 23.18 83.1946 23.508 82.9626 23.852C82.7306 24.196 82.5106 24.548 82.3026 24.908C82.1026 25.268 81.9226 25.62 81.7626 25.964H84.4026V22.004ZM89.3641 23.888C90.5721 23.936 91.4561 24.2 92.0161 24.68C92.5841 25.16 92.8681 25.812 92.8681 26.636C92.8681 27.004 92.8041 27.344 92.6761 27.656C92.5561 27.968 92.3681 28.236 92.1121 28.46C91.8641 28.684 91.5481 28.86 91.1641 28.988C90.7801 29.116 90.3241 29.18 89.7961 29.18C89.5881 29.18 89.3761 29.164 89.1601 29.132C88.9441 29.1 88.7441 29.06 88.5601 29.012C88.3761 28.964 88.2121 28.916 88.0681 28.868C87.9241 28.82 87.8201 28.78 87.7561 28.748L87.9721 27.776C88.1081 27.84 88.3281 27.924 88.6321 28.028C88.9441 28.132 89.3241 28.184 89.7721 28.184C90.1321 28.184 90.4321 28.144 90.6721 28.064C90.9201 27.984 91.1201 27.876 91.2721 27.74C91.4241 27.604 91.5321 27.448 91.5961 27.272C91.6681 27.088 91.7041 26.896 91.7041 26.696C91.7041 26.392 91.6521 26.124 91.5481 25.892C91.4441 25.652 91.2601 25.452 90.9961 25.292C90.7321 25.132 90.3801 25.012 89.9401 24.932C89.5001 24.844 88.9441 24.8 88.2721 24.8C88.3201 24.408 88.3561 24.04 88.3801 23.696C88.4121 23.352 88.4401 23.016 88.4641 22.688C88.4881 22.36 88.5081 22.036 88.5241 21.716C88.5401 21.388 88.5561 21.044 88.5721 20.684H92.5801V21.632H89.5441C89.5361 21.752 89.5241 21.916 89.5081 22.124C89.4921 22.324 89.4761 22.536 89.4601 22.76C89.4441 22.976 89.4281 23.188 89.4121 23.396C89.3961 23.604 89.3801 23.768 89.3641 23.888ZM94.5055 25.664C94.5055 24.856 94.6175 24.144 94.8415 23.528C95.0655 22.904 95.3815 22.38 95.7895 21.956C96.2055 21.532 96.7055 21.212 97.2895 20.996C97.8815 20.772 98.5455 20.656 99.2815 20.648L99.3655 21.584C98.8935 21.592 98.4615 21.644 98.0695 21.74C97.6855 21.836 97.3415 21.988 97.0375 22.196C96.7335 22.404 96.4775 22.676 96.2695 23.012C96.0615 23.34 95.9055 23.748 95.8015 24.236C96.0095 24.14 96.2415 24.06 96.4975 23.996C96.7615 23.932 97.0335 23.9 97.3135 23.9C97.7855 23.9 98.1855 23.972 98.5135 24.116C98.8415 24.26 99.1095 24.452 99.3175 24.692C99.5255 24.924 99.6735 25.196 99.7615 25.508C99.8575 25.812 99.9055 26.132 99.9055 26.468C99.9055 26.772 99.8535 27.084 99.7495 27.404C99.6455 27.724 99.4855 28.016 99.2695 28.28C99.0615 28.544 98.7935 28.76 98.4655 28.928C98.1375 29.096 97.7495 29.18 97.3015 29.18C96.3895 29.18 95.6935 28.868 95.2135 28.244C94.7415 27.62 94.5055 26.76 94.5055 25.664ZM97.1935 24.812C96.9135 24.812 96.6535 24.84 96.4135 24.896C96.1735 24.944 95.9335 25.02 95.6935 25.124C95.6855 25.212 95.6775 25.304 95.6695 25.4C95.6695 25.488 95.6695 25.576 95.6695 25.664C95.6695 26.016 95.6935 26.348 95.7415 26.66C95.7895 26.972 95.8735 27.248 95.9935 27.488C96.1215 27.72 96.2895 27.908 96.4975 28.052C96.7055 28.188 96.9695 28.256 97.2895 28.256C97.5535 28.256 97.7775 28.2 97.9615 28.088C98.1455 27.976 98.2975 27.832 98.4175 27.656C98.5375 27.48 98.6215 27.292 98.6695 27.092C98.7255 26.884 98.7535 26.684 98.7535 26.492C98.7535 25.948 98.6215 25.532 98.3575 25.244C98.1015 24.956 97.7135 24.812 97.1935 24.812ZM100.835 24.884H103.799V25.928H100.835V24.884ZM106.065 29C106.113 28.36 106.225 27.688 106.401 26.984C106.585 26.272 106.809 25.584 107.073 24.92C107.337 24.248 107.625 23.628 107.937 23.06C108.257 22.484 108.569 22.016 108.873 21.656H104.829V20.684H110.121V21.608C109.857 21.912 109.565 22.332 109.245 22.868C108.925 23.396 108.621 23.992 108.333 24.656C108.053 25.312 107.809 26.016 107.601 26.768C107.401 27.512 107.277 28.256 107.229 29H106.065ZM116.99 26.84C116.99 27.176 116.93 27.488 116.81 27.776C116.698 28.056 116.526 28.304 116.294 28.52C116.07 28.728 115.786 28.888 115.442 29C115.098 29.12 114.702 29.18 114.254 29.18C113.734 29.18 113.298 29.108 112.946 28.964C112.602 28.812 112.326 28.624 112.118 28.4C111.91 28.176 111.762 27.932 111.674 27.668C111.586 27.396 111.542 27.14 111.542 26.9C111.542 26.668 111.578 26.448 111.65 26.24C111.73 26.024 111.83 25.824 111.95 25.64C112.078 25.456 112.222 25.292 112.382 25.148C112.55 24.996 112.726 24.864 112.91 24.752C112.126 24.304 111.734 23.644 111.734 22.772C111.734 22.468 111.794 22.18 111.914 21.908C112.034 21.628 112.202 21.384 112.418 21.176C112.642 20.968 112.91 20.804 113.222 20.684C113.534 20.556 113.882 20.492 114.266 20.492C114.714 20.492 115.098 20.56 115.418 20.696C115.738 20.832 115.998 21.008 116.198 21.224C116.406 21.432 116.554 21.664 116.642 21.92C116.738 22.176 116.786 22.424 116.786 22.664C116.786 22.896 116.75 23.116 116.678 23.324C116.614 23.524 116.522 23.712 116.402 23.888C116.29 24.064 116.158 24.22 116.006 24.356C115.862 24.492 115.71 24.612 115.55 24.716C116.494 25.164 116.974 25.872 116.99 26.84ZM112.67 26.912C112.67 27.056 112.694 27.208 112.742 27.368C112.798 27.52 112.89 27.664 113.018 27.8C113.146 27.928 113.31 28.036 113.51 28.124C113.71 28.212 113.962 28.256 114.266 28.256C114.538 28.256 114.774 28.216 114.974 28.136C115.182 28.056 115.35 27.956 115.478 27.836C115.606 27.708 115.702 27.564 115.766 27.404C115.83 27.244 115.862 27.08 115.862 26.912C115.862 26.656 115.814 26.432 115.718 26.24C115.622 26.048 115.482 25.88 115.298 25.736C115.122 25.592 114.906 25.472 114.65 25.376C114.402 25.272 114.118 25.184 113.798 25.112C113.438 25.312 113.158 25.56 112.958 25.856C112.766 26.152 112.67 26.504 112.67 26.912ZM115.67 22.652C115.67 22.532 115.642 22.4 115.586 22.256C115.538 22.112 115.458 21.98 115.346 21.86C115.234 21.732 115.09 21.628 114.914 21.548C114.738 21.46 114.522 21.416 114.266 21.416C114.01 21.416 113.79 21.456 113.606 21.536C113.43 21.616 113.286 21.72 113.174 21.848C113.062 21.968 112.978 22.104 112.922 22.256C112.874 22.4 112.85 22.544 112.85 22.688C112.85 22.864 112.882 23.04 112.946 23.216C113.01 23.392 113.11 23.556 113.246 23.708C113.382 23.86 113.558 23.996 113.774 24.116C113.998 24.236 114.262 24.332 114.566 24.404C114.902 24.204 115.17 23.972 115.37 23.708C115.57 23.436 115.67 23.084 115.67 22.652ZM123.668 24.008C123.668 25.656 123.256 26.904 122.432 27.752C121.616 28.592 120.4 29.016 118.784 29.024L118.748 28.088C119.252 28.088 119.704 28.04 120.104 27.944C120.512 27.848 120.868 27.696 121.172 27.488C121.476 27.272 121.728 26.996 121.928 26.66C122.136 26.324 122.288 25.912 122.384 25.424C122.176 25.52 121.94 25.6 121.676 25.664C121.412 25.72 121.14 25.748 120.86 25.748C120.388 25.748 119.988 25.68 119.66 25.544C119.332 25.4 119.064 25.212 118.856 24.98C118.648 24.74 118.496 24.468 118.4 24.164C118.312 23.852 118.268 23.528 118.268 23.192C118.268 22.896 118.32 22.588 118.424 22.268C118.528 21.948 118.684 21.656 118.892 21.392C119.108 21.128 119.38 20.912 119.708 20.744C120.036 20.576 120.424 20.492 120.872 20.492C121.328 20.492 121.728 20.572 122.072 20.732C122.424 20.892 122.716 21.124 122.948 21.428C123.188 21.732 123.368 22.104 123.488 22.544C123.608 22.976 123.668 23.464 123.668 24.008ZM120.98 24.836C121.26 24.836 121.524 24.812 121.772 24.764C122.02 24.708 122.26 24.628 122.492 24.524C122.5 24.436 122.504 24.352 122.504 24.272C122.504 24.184 122.504 24.096 122.504 24.008C122.504 23.664 122.48 23.336 122.432 23.024C122.384 22.704 122.296 22.428 122.168 22.196C122.048 21.956 121.884 21.768 121.676 21.632C121.468 21.488 121.204 21.416 120.884 21.416C120.62 21.416 120.396 21.472 120.212 21.584C120.028 21.696 119.876 21.84 119.756 22.016C119.636 22.184 119.548 22.372 119.492 22.58C119.444 22.78 119.42 22.976 119.42 23.168C119.42 23.712 119.548 24.128 119.804 24.416C120.068 24.696 120.46 24.836 120.98 24.836ZM125.029 24.836C125.029 23.444 125.273 22.372 125.761 21.62C126.257 20.868 126.941 20.492 127.813 20.492C128.685 20.492 129.365 20.868 129.853 21.62C130.349 22.372 130.597 23.444 130.597 24.836C130.597 26.228 130.349 27.3 129.853 28.052C129.365 28.804 128.685 29.18 127.813 29.18C126.941 29.18 126.257 28.804 125.761 28.052C125.273 27.3 125.029 26.228 125.029 24.836ZM129.421 24.836C129.421 24.38 129.393 23.948 129.337 23.54C129.289 23.132 129.201 22.776 129.073 22.472C128.953 22.168 128.789 21.928 128.581 21.752C128.373 21.568 128.117 21.476 127.813 21.476C127.509 21.476 127.253 21.568 127.045 21.752C126.837 21.928 126.669 22.168 126.541 22.472C126.421 22.776 126.333 23.132 126.277 23.54C126.229 23.948 126.205 24.38 126.205 24.836C126.205 25.292 126.229 25.724 126.277 26.132C126.333 26.54 126.421 26.896 126.541 27.2C126.669 27.504 126.837 27.748 127.045 27.932C127.253 28.108 127.509 28.196 127.813 28.196C128.117 28.196 128.373 28.108 128.581 27.932C128.789 27.748 128.953 27.504 129.073 27.2C129.201 26.896 129.289 26.54 129.337 26.132C129.393 25.724 129.421 25.292 129.421 24.836Z" fill="white"/>
</g>
<g filter="url(#filter2_d_0_1)">
<path d="M80 10.8244L82.5481 0.17561H83.6947L86.1742 10.8244H85.0374L84.3905 7.9347H81.7249L81.078 10.8244H80ZM82.0385 6.49782H84.0769L83.0577 1.94775L82.0385 6.49782ZM89.0757 10.8244V0.17561H90.1636V10.8244H89.0757ZM98.4128 10.8244V0.17561H100.706C101.765 0.17561 102.552 0.622645 103.068 1.5167C103.584 2.41075 103.842 3.73586 103.842 5.49203C103.842 7.25884 103.584 8.58927 103.068 9.48332C102.552 10.3774 101.765 10.8244 100.706 10.8244H98.4128ZM99.4909 9.33962H100.598C101.33 9.33962 101.869 9.03629 102.215 8.42961C102.562 7.81229 102.735 6.8331 102.735 5.49203C102.735 4.16159 102.562 3.18771 102.215 2.57039C101.869 1.95307 101.33 1.64441 100.598 1.64441H99.4909V9.33962ZM107.092 10.8244V0.17561H109.992C110.672 0.17561 111.195 0.447017 111.56 0.989833C111.926 1.52201 112.109 2.32559 112.109 3.40057C112.109 4.14562 111.982 4.81083 111.727 5.39622C111.479 5.97097 111.129 6.33817 110.678 6.49782L112.423 10.8244H111.08L109.551 6.80117H108.17V10.8244H107.092ZM108.17 5.36429H109.689C110.545 5.36429 110.972 4.74166 110.972 3.49638C110.972 2.92163 110.888 2.4746 110.718 2.15529C110.548 1.82535 110.264 1.66038 109.865 1.66038H108.17V5.36429ZM115.569 10.8244V0.17561H116.657V10.8244H115.569ZM122.033 10.8244L119.554 0.17561H120.769L122.67 8.74892L124.552 0.191574L125.689 0.17561L123.16 10.8244H122.033ZM128.591 10.8244V0.17561H132.874V1.66038H129.679V4.74166H132.472V6.24239H129.669V9.33962H132.874V10.8244H128.591ZM136.294 10.8244V0.17561H137.332L140.802 7.99855V0.17561H141.831V10.8244H140.861L137.323 2.92162V10.8244H136.294ZM150.081 10.8244V0.17561H154.364V1.66038H151.169V4.74166H153.962V6.24239H151.159V9.33962H154.364V10.8244H150.081ZM157.783 10.8244V0.17561H158.871V5.34833L161.498 0.17561H162.87L160.214 4.9492L163.085 10.8244H161.664L159.469 6.29028L158.871 7.37591V10.8244H157.783ZM168.815 11C167.841 11 167.09 10.5477 166.561 9.64297C166.038 8.72763 165.777 7.34931 165.777 5.50799C165.777 3.68796 166.035 2.31494 166.551 1.38896C167.074 0.462982 167.828 0 168.815 0C169.788 0 170.54 0.457661 171.069 1.373C171.598 2.27769 171.863 3.65603 171.863 5.50799C171.863 7.31738 171.601 8.68506 171.079 9.61104C170.562 10.537 169.808 11 168.815 11ZM168.815 9.48332C169.468 9.48332 169.952 9.17465 170.265 8.55733C170.585 7.92937 170.745 6.9076 170.745 5.49203C170.745 4.09773 170.585 3.09192 170.265 2.4746C169.952 1.84664 169.468 1.53266 168.815 1.53266C168.161 1.53266 167.675 1.84664 167.354 2.4746C167.041 3.09192 166.884 4.10305 166.884 5.50799C166.884 6.91293 167.041 7.92937 167.354 8.55733C167.675 9.17465 168.161 9.48332 168.815 9.48332ZM179.857 10.8244V0.17561H180.945V9.32366H184.071V10.8244H179.857ZM187.081 10.8244V0.17561H188.169V10.8244H187.081ZM193.545 10.8244L191.065 0.17561H192.281L194.182 8.74892L196.064 0.191574L197.2 0.17561L194.672 10.8244H193.545ZM200.103 10.8244V0.17561H201.191V10.8244H200.103ZM204.695 10.8244V0.17561H205.734L209.203 7.99855V0.17561H210.232V10.8244H209.262L205.724 2.92162V10.8244H204.695ZM216.579 11C215.586 11 214.822 10.553 214.286 9.65893C213.75 8.76488 213.482 7.37592 213.482 5.49203C213.482 3.62942 213.75 2.25108 214.286 1.35703C214.822 0.45234 215.583 0 216.57 0C217.34 0 218.069 0.244802 218.755 0.734401V2.42671C218.409 2.14998 218.069 1.92114 217.736 1.7402C217.403 1.55926 217.06 1.4688 216.707 1.4688C215.988 1.4688 215.452 1.78278 215.099 2.41074C214.747 3.03871 214.57 4.0658 214.57 5.49203C214.57 6.91825 214.747 7.94533 215.099 8.57329C215.459 9.20126 215.985 9.51525 216.677 9.51525C217.135 9.51525 217.55 9.40881 217.922 9.19594V6.65748H216.55V5.15675H219V10.0421C218.236 10.6807 217.429 11 216.579 11Z" fill="#F6F6F6"/>
</g>
<g filter="url(#filter3_d_0_1)">
<path d="M195 46.3457C194.203 46.742 193.348 47.0098 192.448 47.1308C193.376 46.5072 194.071 45.5257 194.402 44.3695C193.53 44.9511 192.575 45.3605 191.58 45.5799C190.91 44.7775 190.024 44.2456 189.057 44.0669C188.091 43.8882 187.099 44.0726 186.236 44.5915C185.373 45.1104 184.686 45.9348 184.283 46.9366C183.88 47.9385 183.783 49.0618 184.006 50.1321C182.239 50.0324 180.51 49.5168 178.932 48.6185C177.354 47.7202 175.961 46.4594 174.845 44.9179C174.464 45.657 174.244 46.5139 174.244 47.4264C174.244 48.248 174.424 49.0569 174.769 49.7815C175.114 50.5061 175.613 51.1239 176.221 51.5802C175.515 51.555 174.825 51.3409 174.208 50.9557V51.02C174.208 52.1722 174.563 53.289 175.213 54.1808C175.863 55.0727 176.767 55.6846 177.773 55.9128C177.119 56.1117 176.432 56.141 175.766 55.9985C176.05 56.9899 176.603 57.8569 177.347 58.478C178.092 59.0992 178.991 59.4434 179.918 59.4625C178.344 60.85 176.399 61.6026 174.398 61.5993C174.043 61.5994 173.689 61.5762 173.337 61.5297C175.369 62.9962 177.734 63.7745 180.149 63.7715C188.325 63.7715 192.795 56.1688 192.795 49.5751C192.795 49.3609 192.79 49.1445 192.782 48.9303C193.651 48.2244 194.402 47.3503 194.998 46.3489L195 46.3457Z" fill="#F6F6F6"/>
<path d="M114.826 43.8H97.7427C97.3319 43.8 97 44.1596 97 44.6047V63.1112C97 63.5563 97.3319 63.9158 97.7427 63.9158H114.826C115.237 63.9158 115.568 63.5563 115.568 63.1112V44.6047C115.568 44.1596 115.237 43.8 114.826 43.8ZM114.083 62.3066H109.81V56.126H112.224L112.586 53.091H109.81V51.1524C109.81 50.2723 110.035 49.6739 111.198 49.6739H112.681V46.9582C112.423 46.9205 111.544 46.8375 110.518 46.8375C108.378 46.8375 106.913 48.2532 106.913 50.8506V53.0885H104.495V56.1235H106.916V62.3066H98.4855V45.4093H114.083V62.3066Z" fill="#F6F6F6"/>
<rect width="24.9455" height="23.6727" transform="translate(133.527 41.6364)" fill="white"/>
<path d="M146 57.03C143.969 57.03 142.209 55.56 142.209 53.6C142.209 51.7625 143.834 50.17 146 50.17C148.031 50.17 149.791 51.64 149.791 53.6C149.791 55.4375 148.031 57.03 146 57.03Z" fill="#594D4A"/>
<path fill-rule="evenodd" clip-rule="evenodd" d="M150.603 45.27H141.397C140.313 45.3925 139.772 45.515 139.366 45.6375C138.824 45.76 138.418 46.005 138.012 46.3725C137.69 46.6633 137.539 46.9541 137.355 47.3056C137.307 47.3982 137.256 47.4953 137.199 47.5975C137.178 47.6543 137.154 47.7141 137.128 47.7782C136.987 48.1283 136.793 48.6066 136.793 49.435V57.765C136.929 58.745 137.064 59.235 137.199 59.6025C137.335 60.0925 137.606 60.46 138.012 60.8275C138.333 61.1183 138.655 61.2557 139.043 61.4218C139.146 61.4656 139.253 61.5114 139.366 61.5625C139.429 61.5814 139.495 61.6033 139.565 61.6268C139.952 61.7549 140.481 61.93 141.397 61.93H150.603C151.687 61.8075 152.228 61.685 152.634 61.5625C153.176 61.44 153.582 61.195 153.988 60.8275C154.31 60.5367 154.462 60.2459 154.645 59.8944C154.694 59.8017 154.744 59.7047 154.801 59.6025C154.822 59.5456 154.846 59.4859 154.872 59.4218C155.013 59.0717 155.207 58.5934 155.207 57.765V49.435C155.072 48.455 154.936 47.965 154.801 47.5975C154.665 47.1075 154.395 46.74 153.988 46.3725C153.667 46.0817 153.346 45.9443 152.957 45.7782C152.855 45.7345 152.747 45.6885 152.634 45.6375C152.572 45.6185 152.506 45.5967 152.435 45.5732C152.048 45.4451 151.519 45.27 150.603 45.27ZM146 48.3325C142.751 48.3325 140.178 50.66 140.178 53.6C140.178 56.54 142.751 58.8675 146 58.8675C149.25 58.8675 151.822 56.54 151.822 53.6C151.822 50.66 149.25 48.3325 146 48.3325ZM153.311 48.21C153.311 48.8865 152.705 49.435 151.957 49.435C151.21 49.435 150.603 48.8865 150.603 48.21C150.603 47.5334 151.21 46.985 151.957 46.985C152.705 46.985 153.311 47.5334 153.311 48.21Z" fill="#594D4A"/>
<path fill-rule="evenodd" clip-rule="evenodd" d="M124.337 40.125C124.337 36.7423 127.368 34 131.107 34H160.893C164.632 34 167.663 36.7423 167.663 40.125V67.075C167.663 70.4577 164.632 73.2 160.893 73.2H131.107C127.368 73.2 124.337 70.4577 124.337 67.075V40.125ZM141.397 43.4325H150.603C151.822 43.555 152.634 43.6775 153.311 43.9225C154.124 44.29 154.665 44.535 155.342 45.1475C156.019 45.76 156.425 46.3725 156.696 46.985C156.967 47.5975 157.238 48.3325 157.238 49.435V57.765C157.102 58.8675 156.967 59.6025 156.696 60.215C156.29 60.95 156.019 61.44 155.342 62.0525C154.665 62.665 153.988 63.0325 153.311 63.2775C152.634 63.5225 151.822 63.7675 150.603 63.7675H141.397C140.178 63.645 139.366 63.5225 138.689 63.2775C137.876 62.91 137.335 62.665 136.658 62.0525C135.981 61.44 135.575 60.8275 135.304 60.215C135.033 59.6025 134.762 58.8675 134.762 57.765V49.435C134.898 48.3325 135.033 47.5975 135.304 46.985C135.71 46.25 135.981 45.76 136.658 45.1475C137.335 44.535 138.012 44.1675 138.689 43.9225C139.366 43.6775 140.178 43.4325 141.397 43.4325Z" fill="#594D4A"/>
</g>
<defs>
<filter id="filter0_d_0_1" x="150.032" y="19.688" width="124.26" height="19.235" filterUnits="userSpaceOnUse" color-interpolation-filters="sRGB">
<feFlood flood-opacity="0" result="BackgroundImageFix"/>
<feColorMatrix in="SourceAlpha" type="matrix" values="0 0 0 0 0 0 0 0 0 0 0 0 0 0 0 0 0 0 127 0" result="hardAlpha"/>
<feOffset dy="4"/>
<feGaussianBlur stdDeviation="2"/>
<feComposite in2="hardAlpha" operator="out"/>
<feColorMatrix type="matrix" values="0 0 0 0 0 0 0 0 0 0 0 0 0 0 0 0 0 0 0.25 0"/>
<feBlend mode="normal" in2="BackgroundImageFix" result="effect1_dropShadow_0_1"/>
<feBlend mode="normal" in="SourceGraphic" in2="effect1_dropShadow_0_1" result="shape"/>
</filter>
<filter id="filter1_d_0_1" x="0.0319824" y="19.604" width="134.565" height="19.616" filterUnits="userSpaceOnUse" color-interpolation-filters="sRGB">
<feFlood flood-opacity="0" result="BackgroundImageFix"/>
<feColorMatrix in="SourceAlpha" type="matrix" values="0 0 0 0 0 0 0 0 0 0 0 0 0 0 0 0 0 0 127 0" result="hardAlpha"/>
<feOffset dy="4"/>
<feGaussianBlur stdDeviation="2"/>
<feComposite in2="hardAlpha" operator="out"/>
<feColorMatrix type="matrix" values="0 0 0 0 0 0 0 0 0 0 0 0 0 0 0 0 0 0 0.25 0"/>
<feBlend mode="normal" in2="BackgroundImageFix" result="effect1_dropShadow_0_1"/>
<feBlend mode="normal" in="SourceGraphic" in2="effect1_dropShadow_0_1" result="shape"/>
</filter>
<filter id="filter2_d_0_1" x="76" y="0" width="147" height="19" filterUnits="userSpaceOnUse" color-interpolation-filters="sRGB">
<feFlood flood-opacity="0" result="BackgroundImageFix"/>
<feColorMatrix in="SourceAlpha" type="matrix" values="0 0 0 0 0 0 0 0 0 0 0 0 0 0 0 0 0 0 127 0" result="hardAlpha"/>
<feOffset dy="4"/>
<feGaussianBlur stdDeviation="2"/>
<feComposite in2="hardAlpha" operator="out"/>
<feColorMatrix type="matrix" values="0 0 0 0 0 0 0 0 0 0 0 0 0 0 0 0 0 0 0.25 0"/>
<feBlend mode="normal" in2="BackgroundImageFix" result="effect1_dropShadow_0_1"/>
<feBlend mode="normal" in="SourceGraphic" in2="effect1_dropShadow_0_1" result="shape"/>
</filter>
<filter id="filter3_d_0_1" x="93" y="34" width="106" height="47.2" filterUnits="userSpaceOnUse" color-interpolation-filters="sRGB">
<feFlood flood-opacity="0" result="BackgroundImageFix"/>
<feColorMatrix in="SourceAlpha" type="matrix" values="0 0 0 0 0 0 0 0 0 0 0 0 0 0 0 0 0 0 127 0" result="hardAlpha"/>
<feOffset dy="4"/>
<feGaussianBlur stdDeviation="2"/>
<feComposite in2="hardAlpha" operator="out"/>
<feColorMatrix type="matrix" values="0 0 0 0 0 0 0 0 0 0 0 0 0 0 0 0 0 0 0.25 0"/>
<feBlend mode="normal" in2="BackgroundImageFix" result="effect1_dropShadow_0_1"/>
<feBlend mode="normal" in="SourceGraphic" in2="effect1_dropShadow_0_1" result="shape"/>
</filter>
</defs>
</svg>
