<svg width="26" height="26" viewBox="0 0 26 26" fill="none" xmlns="http://www.w3.org/2000/svg">
<path d="M25.5466 22.0056L20.6785 17.1375C20.4587 16.9177 20.1609 16.7957 19.8484 16.7957H19.0525C20.4001 15.072 21.2009 12.9041 21.2009 10.5457C21.2009 4.9353 16.655 0.389404 11.0447 0.389404C5.43433 0.389404 0.888428 4.9353 0.888428 10.5457C0.888428 16.156 5.43433 20.7019 11.0447 20.7019C13.4031 20.7019 15.571 19.9011 17.2947 18.5535V19.3494C17.2947 19.6619 17.4167 19.9597 17.6365 20.1794L22.5046 25.0476C22.9636 25.5066 23.7058 25.5066 24.1599 25.0476L25.5417 23.6658C26.0007 23.2068 26.0007 22.4646 25.5466 22.0056ZM11.0447 16.7957C7.59253 16.7957 4.79468 14.0027 4.79468 10.5457C4.79468 7.09351 7.58765 4.29565 11.0447 4.29565C14.4968 4.29565 17.2947 7.08862 17.2947 10.5457C17.2947 13.9978 14.5017 16.7957 11.0447 16.7957Z" fill="#594D4A"/>
</svg>

