<svg width="413" height="47" viewBox="0 0 413 47" fill="none" xmlns="http://www.w3.org/2000/svg">
<g filter="url(#filter0_d_486_700)">
<path d="M4.15833 38.3774L11.5767 0.622617H14.915L22.1337 38.3774H18.8239L16.9408 28.1321H9.18L7.29686 38.3774H4.15833ZM10.093 23.0377H16.0278L13.0604 6.90567L10.093 23.0377ZM30.5811 38.3774V0.622617H33.7481V38.3774H30.5811ZM57.7648 38.3774V0.622617H64.4413C67.5228 0.622617 69.8149 2.20756 71.3176 5.37737C72.8203 8.54719 73.5717 13.2453 73.5717 19.4717C73.5717 25.7359 72.8203 30.4529 71.3176 33.6227C69.8149 36.7925 67.5228 38.3774 64.4413 38.3774H57.7648ZM60.9033 33.1132H64.1275C66.2579 33.1132 67.8272 32.0378 68.8353 29.8868C69.8434 27.6981 70.3475 24.2264 70.3475 19.4717C70.3475 14.7547 69.8434 11.3019 68.8353 9.11319C67.8272 6.92451 66.2579 5.83019 64.1275 5.83019H60.9033V33.1132ZM83.0315 38.3774V0.622617H91.477C93.4554 0.622617 94.9771 1.58488 96.0423 3.50941C97.1075 5.3962 97.6401 8.24526 97.6401 12.0566C97.6401 14.6981 97.2692 17.0566 96.5274 19.1321C95.8046 21.1698 94.7869 22.4717 93.4744 23.0377L98.5532 38.3774H94.6442L90.1931 24.1132H86.17V38.3774H83.0315ZM86.17 19.0189H90.5925C93.0845 19.0189 94.3304 16.8113 94.3304 12.3963C94.3304 10.3585 94.0831 8.77357 93.5885 7.64149C93.094 6.47168 92.2664 5.88679 91.1061 5.88679H86.17V19.0189ZM107.713 38.3774V0.622617H110.88V38.3774H107.713ZM126.532 38.3774L119.313 0.622617H122.851L128.387 31.0189L133.865 0.679218L137.175 0.622617L129.813 38.3774H126.532ZM145.624 38.3774V0.622617H158.093V5.88679H148.791V16.8113H156.923V22.1321H148.762V33.1132H158.093V38.3774H145.624ZM168.049 38.3774V0.622617H171.074L181.174 28.3585V0.622617H184.17V38.3774H181.345L171.045 10.3585V38.3774H168.049ZM208.19 38.3774V0.622617H220.658V5.88679H211.357V16.8113H219.488V22.1321H211.328V33.1132H220.658V38.3774H208.19ZM230.614 38.3774V0.622617H233.781V18.9623L241.428 0.622617H245.422L237.69 17.5472L246.05 38.3774H241.913L235.522 22.3019L233.781 26.1509V38.3774H230.614ZM262.73 39C259.896 39 257.708 37.3962 256.168 34.1887C254.646 30.9434 253.885 26.0566 253.885 19.5283C253.885 13.0755 254.636 8.20753 256.139 4.9245C257.661 1.64148 259.858 0 262.73 0C265.564 0 267.752 1.62262 269.293 4.8679C270.833 8.07545 271.604 12.9623 271.604 19.5283C271.604 25.9434 270.843 30.7925 269.321 34.0755C267.818 37.3585 265.621 39 262.73 39ZM262.73 33.6227C264.632 33.6227 266.04 32.5283 266.953 30.3396C267.885 28.1132 268.351 24.4906 268.351 19.4717C268.351 14.5283 267.885 10.9623 266.953 8.77358C266.04 6.54716 264.632 5.43398 262.73 5.43398C260.828 5.43398 259.411 6.54716 258.479 8.77358C257.566 10.9623 257.109 14.5472 257.109 19.5283C257.109 24.5095 257.566 28.1132 258.479 30.3396C259.411 32.5283 260.828 33.6227 262.73 33.6227ZM294.878 38.3774V0.622617H298.046V33.0566H307.147V38.3774H294.878ZM315.91 38.3774V0.622617H319.077V38.3774H315.91ZM334.729 38.3774L327.51 0.622617H331.048L336.583 31.0189L342.061 0.679218L345.371 0.622617L338.01 38.3774H334.729ZM353.821 38.3774V0.622617H356.989V38.3774H353.821ZM367.19 38.3774V0.622617H370.214L380.315 28.3585V0.622617H383.311V38.3774H380.486L370.186 10.3585V38.3774H367.19ZM401.79 39C398.899 39 396.673 37.4151 395.113 34.2453C393.554 31.0755 392.774 26.151 392.774 19.4717C392.774 12.8679 393.554 7.98112 395.113 4.8113C396.673 1.60375 398.889 0 401.761 0C404.006 0 406.127 0.867934 408.124 2.60378V8.60378C407.116 7.62264 406.127 6.81131 405.157 6.1698C404.187 5.52829 403.188 5.20757 402.161 5.20757C400.069 5.20757 398.509 6.32076 397.482 8.54717C396.454 10.7736 395.941 14.4151 395.941 19.4717C395.941 24.5283 396.454 28.1698 397.482 30.3962C398.528 32.6226 400.059 33.7359 402.075 33.7359C403.407 33.7359 404.615 33.3585 405.699 32.6038V23.6038H401.704V18.283H408.838V35.6038C406.612 37.8679 404.263 39 401.79 39Z" fill="#F6F6F6"/>
</g>
<defs>
<filter id="filter0_d_486_700" x="0.158325" y="0" width="412.679" height="47" filterUnits="userSpaceOnUse" color-interpolation-filters="sRGB">
<feFlood flood-opacity="0" result="BackgroundImageFix"/>
<feColorMatrix in="SourceAlpha" type="matrix" values="0 0 0 0 0 0 0 0 0 0 0 0 0 0 0 0 0 0 127 0" result="hardAlpha"/>
<feOffset dy="4"/>
<feGaussianBlur stdDeviation="2"/>
<feComposite in2="hardAlpha" operator="out"/>
<feColorMatrix type="matrix" values="0 0 0 0 0 0 0 0 0 0 0 0 0 0 0 0 0 0 0.25 0"/>
<feBlend mode="normal" in2="BackgroundImageFix" result="effect1_dropShadow_486_700"/>
<feBlend mode="normal" in="SourceGraphic" in2="effect1_dropShadow_486_700" result="shape"/>
</filter>
</defs>
</svg>
